<?xml version="1.0" encoding="UTF-8"?>
<svg width="254px" height="142px" viewBox="0 0 254 142" version="1.1" xmlns="http://www.w3.org/2000/svg" xmlns:xlink="http://www.w3.org/1999/xlink">
    <title>6506811A-A382-4266-849C-8D2FD69F7CA9</title>
    <g id="UI-KIT" stroke="none" stroke-width="1" fill="none" fill-rule="evenodd" opacity="0.5">
        <g id="landing" transform="translate(-1169.000000, -1446.000000)" stroke="#B8E986" stroke-width="30">
            <g id="wave-2" transform="translate(1190.000000, 1460.000000)">
                <path d="M4.0619124,11.6908167 C4.10394613,28.1532229 16.1095689,41.5292975 30.8772213,41.5671959 C45.6448737,41.6049335 57.5823464,28.290174 57.5404233,11.8277678" id="Oval-4" transform="translate(30.801168, 26.629006) rotate(30.000000) translate(-30.801168, -26.629006) "></path>
                <path d="M96.5522676,65.4064231 C96.5943014,81.8688294 108.599924,95.244904 123.367577,95.2828023 C138.135229,95.32054 150.072702,82.0057804 150.030779,65.5433742" id="Oval-6" transform="translate(123.291523, 80.344613) rotate(30.000000) translate(-123.291523, -80.344613) "></path>
                <path d="M115.687619,47.8403208 C115.645586,31.3779146 103.639963,18.00184 88.8723103,17.9639417 C74.1046577,17.926204 62.1671853,31.2409635 62.2091083,47.7033698" id="Oval-5" transform="translate(88.948364, 32.902131) rotate(30.000000) translate(-88.948364, -32.902131) "></path>
                <path d="M208.177974,101.555927 C208.135941,85.0935211 196.130318,71.7174465 181.362666,71.6795481 C166.595013,71.6418105 154.657541,84.95657 154.699464,101.418976" id="Oval-7" transform="translate(181.438719, 86.617738) rotate(30.000000) translate(-181.438719, -86.617738) "></path>
            </g>
        </g>
    </g>
</svg>