<?xml version="1.0" encoding="UTF-8"?>
<svg width="313px" height="326px" viewBox="0 0 313 326" version="1.1" xmlns="http://www.w3.org/2000/svg" xmlns:xlink="http://www.w3.org/1999/xlink">
    <title>38BF27ED-4B80-4910-96E1-873F9E27E7E6</title>
    <g id="UI-KIT" stroke="none" stroke-width="1" fill="none" fill-rule="evenodd">
        <g id="landing" transform="translate(-911.000000, -2152.000000)">
            <g id="Group" transform="translate(143.000000, 2153.000000)">
                <g id="Group-6">
                    <g id="Recurso-2" transform="translate(769.000000, 0.000000)">
                        <path d="M175.83,323.23 L145.73,323.23 L145.73,314.54 C146.28,309.45 150.95,307.3 155.5,307.12 L186.55,307.12" id="Path" fill="#A8F2BF" fill-rule="nonzero"></path>
                        <path d="M175.83,323.23 C175.83,323.23 175.83,317.5 175.83,315.59 C175.83,313.68 176.67,307.12 186,307.12 L214.61,307.12 C219.12,307.33 223.73,308.39 223.73,315.17 L223.73,323.23 L175.83,323.23 Z" id="Path" fill="#1D2837" fill-rule="nonzero"></path>
                        <rect id="Rectangle" fill="#1D2837" fill-rule="nonzero" x="0" y="281.47" width="157.06" height="10.17"></rect>
                        <polygon id="Path" fill="#1D2837" fill-rule="nonzero" points="179.33 291.64 157.08 291.64 157.08 281.47 179.33 259.22"></polygon>
                        <polygon id="Path" fill="#A8E5EB" fill-rule="nonzero" points="0 281.47 31.79 259.22 179.31 259.22 157.06 281.47"></polygon>
                        <path d="M56.17,1.64 L172.37,1.64 C172.37,1.64 151.17,17.75 168.13,79.64 C172.37,96.64 174.06,113.12 164.74,132.41 C164.74,132.21 52.74,132.41 52.74,132.41 C52.74,132.41 70.13,102.74 59.1,74.55 C55.11,64.37 39.21,48.27 56.17,1.64 Z" id="Path" fill="#A8E5EB" fill-rule="nonzero"></path>
                        <rect id="Rectangle" fill="#FFFFFF" fill-rule="nonzero" x="42.9" y="143.49" width="125.3" height="96.02"></rect>
                        <polygon id="Path" fill="#FFF18B" fill-rule="nonzero" points="46.63 275.43 53.2 270.34 126.75 270.34 120.6 275.43"></polygon>
                        <path d="M31.46,130.77 L31.46,259.22 L179,259.22 L179,130.77 L31.46,130.77 Z M167.87,239.08 L42.57,239.08 L42.57,143.08 L167.87,143.08 L167.87,239.08 Z" id="Shape" fill="#1D2837" fill-rule="nonzero"></path>
                        <polygon id="Path" fill="#DCF4C3" fill-rule="nonzero" points="213.01 130.77 179.31 130.77 179.31 291.64 255.62 291.64 255.62 174.01"></polygon>
                        <path d="M56.17,0 L172.37,0 C172.37,0 151.17,16.11 168.13,78 C172.37,95 174.06,111.48 164.74,130.77 C164.74,130.56 52.74,130.77 52.74,130.77 C52.74,130.77 70.13,101.1 59.1,72.91 C55.11,62.73 39.21,46.63 56.17,0 Z" id="Path" stroke="#1D2837" stroke-width="2" stroke-linecap="round" stroke-linejoin="round"></path>
                        <path d="M176.5,3.28 C176.5,3.28 155.4,16.11 172.36,78 C176.6,95 178.29,111.48 168.97,130.77" id="Path" stroke="#1D2837" stroke-width="2" stroke-linecap="round" stroke-linejoin="round"></path>
                        <line x1="66.98" y1="36.24" x2="125.48" y2="36.24" id="Path" stroke="#1D2837" stroke-width="2" stroke-linecap="round" stroke-linejoin="round"></line>
                        <line x1="65.71" y1="58.28" x2="148.79" y2="58.28" id="Path" stroke="#1D2837" stroke-width="2" stroke-linecap="round" stroke-linejoin="round"></line>
                        <line x1="70.16" y1="69.57" x2="153.24" y2="69.57" id="Path" stroke="#1D2837" stroke-width="2" stroke-linecap="round" stroke-linejoin="round"></line>
                        <line x1="72.7" y1="93.89" x2="155.79" y2="93.89" id="Path" stroke="#1D2837" stroke-width="2" stroke-linecap="round" stroke-linejoin="round"></line>
                        <line x1="63.85" y1="159.6" x2="146.94" y2="159.6" id="Path" stroke="#1D2837" stroke-width="2" stroke-linecap="round" stroke-linejoin="round"></line>
                        <line x1="73.97" y1="105.97" x2="157.06" y2="105.97" id="Path" stroke="#1D2837" stroke-width="2" stroke-linecap="round" stroke-linejoin="round"></line>
                        <line x1="63.85" y1="169.35" x2="146.94" y2="169.35" id="Path" stroke="#1D2837" stroke-width="2" stroke-linecap="round" stroke-linejoin="round"></line>
                        <line x1="65.08" y1="187.15" x2="126.75" y2="187.15" id="Path" stroke="#1D2837" stroke-width="2" stroke-linecap="round" stroke-linejoin="round"></line>
                        <line x1="65.08" y1="198.17" x2="143.39" y2="198.17" id="Path" stroke="#1D2837" stroke-width="2" stroke-linecap="round" stroke-linejoin="round"></line>
                        <rect id="Rectangle" stroke="#18133A" stroke-width="2" stroke-linecap="round" stroke-linejoin="round" x="31.79" y="130.77" width="147.52" height="128.44"></rect>
                        <rect id="Rectangle" stroke="#1D2837" stroke-width="2" stroke-linecap="round" stroke-linejoin="round" x="42.57" y="143.49" width="125.3" height="96.02"></rect>
                        <polygon id="Path" stroke="#1D2837" stroke-width="2" stroke-linecap="round" stroke-linejoin="round" points="179.31 130.77 213.01 130.77 255.62 174.01 255.62 291.64 179.31 291.64"></polygon>
                        <rect id="Rectangle" stroke="#18133A" stroke-width="2" stroke-linecap="round" stroke-linejoin="round" x="0" y="281.47" width="157.06" height="10.17"></rect>
                        <polygon id="Path" stroke="#1D2837" stroke-width="2" stroke-linecap="round" stroke-linejoin="round" points="0 281.47 31.79 259.22 179.31 259.22 157.06 281.47"></polygon>
                        <polygon id="Path" stroke="#1D2837" stroke-width="2" stroke-linecap="round" stroke-linejoin="round" points="179.31 291.64 157.06 291.64 157.06 281.47 179.31 259.22"></polygon>
                        <rect id="Rectangle" stroke="#1D2837" stroke-width="2" stroke-linecap="round" stroke-linejoin="round" x="255.62" y="275.43" width="12.72" height="11.13"></rect>
                        <rect id="Rectangle" stroke="#1D2837" stroke-width="2" stroke-linecap="round" stroke-linejoin="round" x="223.73" y="315.17" width="10.81" height="8.05"></rect>
                        <line x1="268.33" y1="280.99" x2="310.94" y2="280.99" id="Path" stroke="#1D2837" stroke-width="2" stroke-linecap="round" stroke-linejoin="round"></line>
                        <line x1="287.09" y1="319.2" x2="308.39" y2="319.2" id="Path" stroke="#1D2837" stroke-width="2" stroke-linecap="round" stroke-linejoin="round"></line>
                        <line x1="234.54" y1="319.2" x2="277.14" y2="319.2" id="Path" stroke="#1D2837" stroke-width="2" stroke-linecap="round" stroke-linejoin="round"></line>
                        <path d="M175.83,323.23 L145.73,323.23 L145.73,314.54 C146.28,309.45 150.95,307.3 155.5,307.12 L186.55,307.12" id="Path" stroke="#1D2837" stroke-width="2" stroke-linecap="round" stroke-linejoin="round"></path>
                        <path d="M199.78,306.16 C199.691369,304.021357 200.781816,302.006124 202.620573,300.910395 C204.45933,299.814666 206.75067,299.814666 208.589427,300.910395 C210.428184,302.006124 211.518631,304.021357 211.43,306.16" id="Path" stroke="#1D2837" stroke-width="2" stroke-linecap="round" stroke-linejoin="round"></path>
                        <path d="M175.83,323.23 C175.83,323.23 175.83,317.5 175.83,315.59 C175.83,313.68 176.67,307.12 186,307.12 L214.61,307.12 C219.12,307.33 223.73,308.39 223.73,315.17 L223.73,323.23 L175.83,323.23 Z" id="Path" stroke="#18133A" stroke-width="2" stroke-linecap="round" stroke-linejoin="round"></path>
                        <polyline id="Path" stroke="#1D2837" stroke-width="2" stroke-linecap="round" stroke-linejoin="round" points="54.68 151.12 54.68 228.69 161.19 228.69 161.19 151.12"></polyline>
                        <polygon id="Path" stroke="#1D2837" stroke-width="2" stroke-linecap="round" stroke-linejoin="round" points="46.63 275.43 53.2 270.34 126.75 270.34 120.6 275.43"></polygon>
                    </g>
                </g>
            </g>
        </g>
    </g>
</svg>