<?xml version="1.0" encoding="utf-8"?>
<!-- Generator: Adobe Illustrator 24.0.0, SVG Export Plug-In . SVG Version: 6.00 Build 0)  -->
<svg version="1.1" id="Capa_1" xmlns="http://www.w3.org/2000/svg" xmlns:xlink="http://www.w3.org/1999/xlink" x="0px" y="0px"
	 viewBox="0 0 64 64" style="enable-background:new 0 0 64 64;" xml:space="preserve">
<style type="text/css">
	.st0{fill:#2F75C9;}
	.st1{fill:#D7EAF7;}
	.st2{opacity:0.2;}
	.st3{opacity:0.2;fill:#D7EAF7;}
	.st4{fill:#FFFFFF;}
</style>
<g>
	<rect x="-4390" y="-998.5" class="st0" width="2550" height="3300"/>
	<path class="st1" d="M-3352.4,2300.2h209.6l409.3-448.4c36.3-35.9,96.9-0.9,83.8,48.5l-5.9,8.5
		c-81.2,116.1-132.1,250.6-148.2,391.4l0,0h951.2c0,0-6.1-12.2-15.7-33.8c-73.2-165.1-111.5-343.4-112.9-524l-6.2-762.9
		c-2.4-296.4-127.9-580.2-350.9-775.4c-65.4-57.2-136.4-105.8-209.8-134.2c-2.5-1-5.3,0.9-5.3,3.6v206.4c0,0-257.6,3.1-366.7,308
		c-5.2,14.6-14.2,27.5-26.2,37.2c-16.2,13.1-42.4,31.4-78.7,47.7c-3.2-3.2-55.2,238,289.3,242.7c36.6,0.5,72.7,9,105.4,25.5
		c55.8,28.1,127.8,82.3,139.5,177.7c6.9,56.1-9.8,112.5-45,156.7L-3352.4,2300.2z M-2688.9,629.6c-37.5,1.2-68.1-29.4-66.9-66.9
		c1.1-33.9,28.7-61.6,62.7-62.7c37.5-1.2,68.1,29.4,66.9,66.9C-2627.3,600.8-2654.9,628.5-2688.9,629.6z"/>
	<g class="st2">
		<path class="st1" d="M-1949.7,52.6c33.6,0.1,66.3-3.7,97.7-10.9l0.5-176.5c-30.2,12.1-63.2,18.8-97.8,18.7
			c-144-0.4-260.9-117.9-260.5-262c0.4-144,117.9-260.9,262-260.5c34.5,0.1,67.5,7,97.7,19.3l0.5-176.5
			c-31.4-7.4-64.1-11.4-97.7-11.5c-237.1-0.7-430.5,191.6-431.2,428.7C-2379.1-141.5-2186.8,52-1949.7,52.6z"/>
	</g>
	<path class="st3" d="M-3185.8-998.2c-7.8,41.7-25.9,82-54.6,117c-91.3,111.4-256.3,127.7-367.6,36.3l-107,130.4
		c183.3,150.3,454.7,123.5,605.1-59.7c54.5-66.4,85.7-144.4,94.6-224H-3185.8z"/>
	<g class="st2">
		<path class="st1" d="M-4074.5,748.5c-89.1-73.1-199-104.3-305.8-96V822c68.8-8.8,141,9.6,198.8,56.9
			c111.4,91.3,127.7,256.3,36.3,367.6l130.4,107C-3864.4,1170.3-3891.2,898.9-4074.5,748.5z"/>
	</g>
	<text transform="matrix(1 0 0 1 -4226.9268 -72.3368)"><tspan x="0" y="0" class="st4" style="font-family:'Inter-Black'; font-size:274.6474px; letter-spacing:1;">Frontend </tspan><tspan x="0" y="329.6" class="st4" style="font-family:'Inter-Black'; font-size:274.6474px; letter-spacing:1;">Testing</tspan></text>
	<g>
		<g>
			<g>
				<path class="st4" d="M-4187,1685.5h6.2v34c0,3.8-0.9,7.1-2.7,9.9c-1.8,2.7-4.2,4.8-7.3,6.2c-3,1.4-6.3,2.2-10,2.2
					s-6.9-0.7-10-2.2c-3-1.4-5.5-3.5-7.3-6.2c-1.8-2.7-2.7-6-2.7-9.9v-34h6.2v34c0,2.7,0.6,4.9,1.9,6.8c1.3,1.8,3,3.3,5,4.2
					c2.1,1,4.4,1.4,6.8,1.4s4.7-0.5,6.8-1.4s3.8-2.4,5-4.2c1.3-1.8,1.9-4.1,1.9-6.8V1685.5z"/>
				<path class="st4" d="M-4163.2,1713.6v23.2h-5.9v-38.5h5.7v6h0.5c0.9-2,2.3-3.5,4.1-4.7c1.8-1.2,4.2-1.8,7.1-1.8
					c2.6,0,4.9,0.5,6.8,1.6c2,1.1,3.5,2.7,4.6,4.8c1.1,2.1,1.6,4.9,1.6,8.1v24.5h-5.9v-24.1c0-3-0.8-5.4-2.4-7.1
					c-1.6-1.7-3.7-2.5-6.5-2.5c-1.9,0-3.6,0.4-5.1,1.2s-2.6,2-3.5,3.6C-4162.8,1709.5-4163.2,1711.4-4163.2,1713.6z"/>
				<path class="st4" d="M-4116.5,1737.7c-2.4,0-4.7-0.5-6.6-1.4c-2-0.9-3.6-2.3-4.7-4c-1.2-1.8-1.8-3.9-1.8-6.4
					c0-2.2,0.4-4,1.3-5.4c0.9-1.4,2-2.5,3.5-3.2c1.5-0.8,3.1-1.4,4.8-1.8c1.8-0.4,3.5-0.7,5.3-0.9c2.3-0.3,4.2-0.5,5.7-0.7
					c1.5-0.2,2.5-0.4,3.2-0.8c0.7-0.4,1-1.1,1-2v-0.2c0-2.5-0.7-4.4-2-5.8c-1.3-1.4-3.4-2.1-6.1-2.1c-2.8,0-5,0.6-6.6,1.9
					c-1.6,1.2-2.7,2.6-3.4,4l-5.6-2c1-2.3,2.3-4.2,4-5.5s3.5-2.2,5.5-2.8s4-0.8,5.9-0.8c1.2,0,2.7,0.1,4.3,0.4
					c1.6,0.3,3.2,0.9,4.7,1.8c1.5,0.9,2.8,2.3,3.8,4.1s1.5,4.3,1.5,7.3v25.4h-5.9v-5.2h-0.3c-0.4,0.8-1.1,1.7-2,2.7
					s-2.2,1.8-3.7,2.4C-4112.3,1737.4-4114.2,1737.7-4116.5,1737.7z M-4115.6,1732.4c2.3,0,4.3-0.5,5.9-1.4c1.6-0.9,2.8-2.1,3.7-3.6
					c0.8-1.5,1.2-3,1.2-4.6v-5.4c-0.3,0.3-0.8,0.6-1.6,0.8c-0.8,0.2-1.8,0.5-2.9,0.6c-1.1,0.2-2.2,0.3-3.2,0.5s-1.9,0.2-2.5,0.3
					c-1.5,0.2-3,0.5-4.3,1s-2.4,1.1-3.2,2c-0.8,0.9-1.2,2.1-1.2,3.6c0,2.1,0.8,3.6,2.3,4.7
					C-4119.9,1731.9-4117.9,1732.4-4115.6,1732.4z"/>
				<path class="st4" d="M-4065.1,1691.9c-1.2,0-2.1-0.4-3-1.2c-0.8-0.8-1.2-1.7-1.2-2.8s0.4-2,1.2-2.8c0.8-0.8,1.8-1.2,3-1.2
					s2.1,0.4,3,1.2c0.8,0.8,1.2,1.7,1.2,2.8s-0.4,2-1.2,2.8C-4063,1691.5-4064,1691.9-4065.1,1691.9z M-4068.1,1736.8v-38.5h5.9
					v38.5H-4068.1z"/>
				<path class="st4" d="M-4045.5,1713.6v23.2h-5.9v-38.5h5.7v6h0.5c0.9-2,2.3-3.5,4.1-4.7c1.8-1.2,4.2-1.8,7.1-1.8
					c2.6,0,4.9,0.5,6.8,1.6c2,1.1,3.5,2.7,4.6,4.8c1.1,2.1,1.6,4.9,1.6,8.1v24.5h-5.9v-24.1c0-3-0.8-5.4-2.4-7.1
					c-1.6-1.7-3.7-2.5-6.5-2.5c-1.9,0-3.6,0.4-5.1,1.2s-2.6,2-3.5,3.6C-4045,1709.5-4045.5,1711.4-4045.5,1713.6z"/>
				<path class="st4" d="M-3993.3,1698.3v5h-20v-5H-3993.3z M-4007.4,1689.1h5.9v36.7c0,1.7,0.2,2.9,0.7,3.8
					c0.5,0.8,1.1,1.4,1.9,1.7c0.8,0.3,1.6,0.4,2.5,0.4c0.7,0,1.2,0,1.6-0.1s0.8-0.1,1-0.2l1.2,5.3c-0.4,0.2-1,0.3-1.7,0.5
					c-0.7,0.2-1.6,0.2-2.7,0.2c-1.7,0-3.3-0.4-4.9-1.1s-2.9-1.8-4-3.3c-1-1.5-1.6-3.3-1.6-5.6V1689.1z"/>
				<path class="st4" d="M-3984.4,1736.8v-38.5h5.7v5.8h0.4c0.7-1.9,2-3.5,3.8-4.6c1.8-1.2,3.9-1.8,6.2-1.8c0.4,0,1,0,1.6,0
					c0.7,0,1.1,0,1.5,0.1v6c-0.2,0-0.7-0.1-1.4-0.2c-0.7-0.1-1.5-0.2-2.2-0.2c-1.9,0-3.5,0.4-5,1.2s-2.6,1.8-3.5,3.2
					c-0.8,1.4-1.3,2.9-1.3,4.7v24.4H-3984.4z"/>
				<path class="st4" d="M-3942.4,1737.6c-3.5,0-6.5-0.8-9.1-2.5c-2.6-1.7-4.7-4-6.1-6.9c-1.5-3-2.2-6.5-2.2-10.4
					c0-4,0.7-7.5,2.2-10.5s3.5-5.3,6.1-7c2.6-1.7,5.7-2.5,9.1-2.5s6.5,0.8,9.1,2.5c2.6,1.7,4.7,4,6.1,7s2.2,6.5,2.2,10.5
					c0,4-0.7,7.5-2.2,10.4c-1.5,3-3.5,5.3-6.1,6.9C-3935.9,1736.8-3939,1737.6-3942.4,1737.6z M-3942.4,1732.3c2.6,0,4.8-0.7,6.5-2
					c1.7-1.4,3-3.1,3.8-5.3s1.2-4.6,1.2-7.2c0-2.6-0.4-5-1.2-7.2s-2.1-4-3.8-5.4c-1.7-1.4-3.9-2.1-6.5-2.1s-4.8,0.7-6.5,2.1
					c-1.7,1.4-3,3.2-3.8,5.4s-1.2,4.6-1.2,7.2c0,2.6,0.4,5,1.2,7.2s2.1,4,3.8,5.3S-3945.1,1732.3-3942.4,1732.3z"/>
				<path class="st4" d="M-3901.4,1737.6c-3.2,0-6-0.8-8.5-2.4c-2.5-1.6-4.4-3.9-5.8-6.9c-1.4-3-2.1-6.5-2.1-10.6
					c0-4,0.7-7.6,2.1-10.5c1.4-3,3.3-5.3,5.8-6.9s5.3-2.4,8.6-2.4c2.5,0,4.5,0.4,6,1.2c1.5,0.8,2.6,1.8,3.4,2.8
					c0.8,1,1.4,1.9,1.8,2.6h0.5v-19h5.9v51.4h-5.7v-5.9h-0.7c-0.4,0.7-1.1,1.6-1.9,2.6s-1.9,2-3.4,2.8
					C-3896.9,1737.2-3898.9,1737.6-3901.4,1737.6z M-3900.6,1732.3c2.4,0,4.4-0.6,6-1.9c1.6-1.2,2.9-3,3.7-5.2
					c0.9-2.2,1.3-4.8,1.3-7.7c0-2.9-0.4-5.4-1.3-7.6s-2.1-3.9-3.7-5.1c-1.6-1.2-3.7-1.8-6.1-1.8c-2.5,0-4.6,0.6-6.3,1.9
					c-1.7,1.3-2.9,3-3.7,5.2c-0.8,2.2-1.2,4.6-1.2,7.3c0,2.7,0.4,5.2,1.3,7.5c0.8,2.2,2.1,4,3.8,5.3
					C-3905.1,1731.6-3903.1,1732.3-3900.6,1732.3z"/>
				<path class="st4" d="M-3847.8,1721.1v-22.8h5.9v38.5h-5.9v-6.5h-0.4c-0.9,2-2.3,3.6-4.2,5c-1.9,1.4-4.3,2-7.2,2
					c-2.4,0-4.5-0.5-6.4-1.6c-1.9-1.1-3.3-2.7-4.4-4.8c-1.1-2.1-1.6-4.9-1.6-8.1v-24.5h5.9v24.1c0,2.8,0.8,5,2.4,6.7
					s3.6,2.5,6.1,2.5c1.5,0,3-0.4,4.5-1.1c1.5-0.8,2.8-1.9,3.9-3.5C-3848.4,1725.5-3847.8,1723.5-3847.8,1721.1z"/>
				<path class="st4" d="M-3815.4,1737.6c-3.6,0-6.7-0.9-9.3-2.6c-2.6-1.7-4.6-4.1-6-7s-2.1-6.4-2.1-10.3c0-3.9,0.7-7.4,2.2-10.4
					c1.4-3,3.5-5.4,6.1-7c2.6-1.7,5.6-2.5,9.1-2.5c2.7,0,5.1,0.5,7.3,1.5c2.2,1,4,2.4,5.3,4.2c1.4,1.8,2.2,3.9,2.6,6.3h-5.9
					c-0.5-1.8-1.5-3.3-3-4.7c-1.5-1.4-3.6-2-6.2-2c-2.3,0-4.3,0.6-6.1,1.8s-3.1,2.9-4,5c-1,2.2-1.4,4.7-1.4,7.6c0,3,0.5,5.6,1.4,7.8
					c0.9,2.2,2.3,3.9,4,5.1s3.8,1.8,6.1,1.8c1.5,0,2.9-0.3,4.2-0.8s2.3-1.3,3.2-2.3c0.9-1,1.5-2.2,1.9-3.6h5.9
					c-0.3,2.3-1.2,4.3-2.5,6.1s-3,3.3-5.2,4.3S-3812.6,1737.6-3815.4,1737.6z"/>
				<path class="st4" d="M-3776,1737.6c-3.6,0-6.7-0.9-9.3-2.6c-2.6-1.7-4.6-4.1-6-7s-2.1-6.4-2.1-10.3c0-3.9,0.7-7.4,2.2-10.4
					c1.4-3,3.5-5.4,6.1-7c2.6-1.7,5.6-2.5,9.1-2.5c2.7,0,5.1,0.5,7.3,1.5c2.2,1,4,2.4,5.3,4.2c1.4,1.8,2.2,3.9,2.6,6.3h-5.9
					c-0.5-1.8-1.5-3.3-3-4.7c-1.5-1.4-3.6-2-6.2-2c-2.3,0-4.3,0.6-6.1,1.8s-3.1,2.9-4,5c-1,2.2-1.4,4.7-1.4,7.6c0,3,0.5,5.6,1.4,7.8
					c0.9,2.2,2.3,3.9,4,5.1s3.8,1.8,6.1,1.8c1.5,0,2.9-0.3,4.2-0.8s2.3-1.3,3.2-2.3c0.9-1,1.5-2.2,1.9-3.6h5.9
					c-0.3,2.3-1.2,4.3-2.5,6.1s-3,3.3-5.2,4.3S-3773.2,1737.6-3776,1737.6z"/>
				<path class="st4" d="M-3749.2,1691.9c-1.2,0-2.1-0.4-3-1.2c-0.8-0.8-1.2-1.7-1.2-2.8s0.4-2,1.2-2.8c0.8-0.8,1.8-1.2,3-1.2
					s2.1,0.4,3,1.2c0.8,0.8,1.2,1.7,1.2,2.8s-0.4,2-1.2,2.8C-3747.1,1691.5-3748.1,1691.9-3749.2,1691.9z M-3752.2,1736.8v-38.5h5.9
					v38.5H-3752.2z"/>
				<path class="st4" d="M-3719.8,1737.6c-3.5,0-6.5-0.8-9.1-2.5c-2.6-1.7-4.7-4-6.1-6.9c-1.5-3-2.2-6.5-2.2-10.4
					c0-4,0.7-7.5,2.2-10.5s3.5-5.3,6.1-7c2.6-1.7,5.7-2.5,9.1-2.5s6.5,0.8,9.1,2.5c2.6,1.7,4.7,4,6.1,7s2.2,6.5,2.2,10.5
					c0,4-0.7,7.5-2.2,10.4c-1.5,3-3.5,5.3-6.1,6.9C-3713.3,1736.8-3716.4,1737.6-3719.8,1737.6z M-3719.8,1732.3
					c2.6,0,4.8-0.7,6.5-2c1.7-1.4,3-3.1,3.8-5.3s1.2-4.6,1.2-7.2c0-2.6-0.4-5-1.2-7.2s-2.1-4-3.8-5.4c-1.7-1.4-3.9-2.1-6.5-2.1
					s-4.8,0.7-6.5,2.1c-1.7,1.4-3,3.2-3.8,5.4s-1.2,4.6-1.2,7.2c0,2.6,0.4,5,1.2,7.2s2.1,4,3.8,5.3S-3722.5,1732.3-3719.8,1732.3z
					 M-3722.5,1693.1l6.1-11.6h6.9l-7.8,11.6H-3722.5z"/>
				<path class="st4" d="M-3687.4,1713.6v23.2h-5.9v-38.5h5.7v6h0.5c0.9-2,2.3-3.5,4.1-4.7c1.8-1.2,4.2-1.8,7.1-1.8
					c2.6,0,4.9,0.5,6.8,1.6c2,1.1,3.5,2.7,4.6,4.8c1.1,2.1,1.6,4.9,1.6,8.1v24.5h-5.9v-24.1c0-3-0.8-5.4-2.4-7.1
					c-1.6-1.7-3.7-2.5-6.5-2.5c-1.9,0-3.6,0.4-5.1,1.2s-2.6,2-3.5,3.6C-3687,1709.5-3687.4,1711.4-3687.4,1713.6z"/>
				<path class="st4" d="M-3620.8,1737.7c-2.4,0-4.7-0.5-6.6-1.4c-2-0.9-3.6-2.3-4.7-4c-1.2-1.8-1.8-3.9-1.8-6.4
					c0-2.2,0.4-4,1.3-5.4c0.9-1.4,2-2.5,3.5-3.2c1.5-0.8,3.1-1.4,4.8-1.8c1.8-0.4,3.5-0.7,5.3-0.9c2.3-0.3,4.2-0.5,5.7-0.7
					c1.5-0.2,2.5-0.4,3.2-0.8c0.7-0.4,1-1.1,1-2v-0.2c0-2.5-0.7-4.4-2-5.8c-1.3-1.4-3.4-2.1-6.1-2.1c-2.8,0-5,0.6-6.6,1.9
					c-1.6,1.2-2.7,2.6-3.4,4l-5.6-2c1-2.3,2.3-4.2,4-5.5s3.5-2.2,5.5-2.8s4-0.8,5.9-0.8c1.2,0,2.7,0.1,4.3,0.4
					c1.6,0.3,3.2,0.9,4.7,1.8c1.5,0.9,2.8,2.3,3.8,4.1s1.5,4.3,1.5,7.3v25.4h-5.9v-5.2h-0.3c-0.4,0.8-1.1,1.7-2,2.7
					s-2.2,1.8-3.7,2.4C-3616.7,1737.4-3618.6,1737.7-3620.8,1737.7z M-3619.9,1732.4c2.3,0,4.3-0.5,5.9-1.4c1.6-0.9,2.8-2.1,3.7-3.6
					c0.8-1.5,1.2-3,1.2-4.6v-5.4c-0.3,0.3-0.8,0.6-1.6,0.8c-0.8,0.2-1.8,0.5-2.9,0.6c-1.1,0.2-2.2,0.3-3.2,0.5s-1.9,0.2-2.5,0.3
					c-1.5,0.2-3,0.5-4.3,1s-2.4,1.1-3.2,2c-0.8,0.9-1.2,2.1-1.2,3.6c0,2.1,0.8,3.6,2.3,4.7
					C-3624.2,1731.9-3622.3,1732.4-3619.9,1732.4z"/>
				<path class="st4" d="M-3586.4,1685.5v51.4h-5.9v-51.4H-3586.4z"/>
				<path class="st4" d="M-3555.7,1736.8v-38.5h5.7v6h0.5c0.8-2.1,2.1-3.7,3.9-4.8c1.8-1.1,3.9-1.7,6.4-1.7c2.5,0,4.7,0.6,6.4,1.7
					c1.7,1.1,3,2.7,4,4.8h0.4c1-2,2.5-3.6,4.4-4.8s4.3-1.8,7.1-1.8c3.4,0,6.3,1.1,8.5,3.2s3.3,5.5,3.3,10v25.8h-5.9V1711
					c0-2.8-0.8-4.9-2.3-6.1c-1.6-1.2-3.4-1.8-5.5-1.8c-2.7,0-4.8,0.8-6.3,2.4c-1.5,1.6-2.2,3.7-2.2,6.2v25.1h-6v-26.4
					c0-2.2-0.7-4-2.1-5.3s-3.3-2-5.5-2c-1.5,0-3,0.4-4.3,1.2s-2.4,2-3.2,3.4c-0.8,1.4-1.2,3.1-1.2,5v24.1H-3555.7z"/>
				<path class="st4" d="M-3470,1721.1v-22.8h5.9v38.5h-5.9v-6.5h-0.4c-0.9,2-2.3,3.6-4.2,5c-1.9,1.4-4.3,2-7.2,2
					c-2.4,0-4.5-0.5-6.4-1.6c-1.9-1.1-3.3-2.7-4.4-4.8c-1.1-2.1-1.6-4.9-1.6-8.1v-24.5h5.9v24.1c0,2.8,0.8,5,2.4,6.7
					s3.6,2.5,6.1,2.5c1.5,0,3-0.4,4.5-1.1c1.5-0.8,2.8-1.9,3.9-3.5C-3470.6,1725.5-3470,1723.5-3470,1721.1z"/>
				<path class="st4" d="M-3447.4,1713.6v23.2h-5.9v-38.5h5.7v6h0.5c0.9-2,2.3-3.5,4.1-4.7c1.8-1.2,4.2-1.8,7.1-1.8
					c2.6,0,4.9,0.5,6.8,1.6c2,1.1,3.5,2.7,4.6,4.8c1.1,2.1,1.6,4.9,1.6,8.1v24.5h-5.9v-24.1c0-3-0.8-5.4-2.4-7.1
					c-1.6-1.7-3.7-2.5-6.5-2.5c-1.9,0-3.6,0.4-5.1,1.2s-2.6,2-3.5,3.6C-3446.9,1709.5-3447.4,1711.4-3447.4,1713.6z"/>
				<path class="st4" d="M-3397.4,1737.6c-3.2,0-6-0.8-8.5-2.4c-2.5-1.6-4.4-3.9-5.8-6.9c-1.4-3-2.1-6.5-2.1-10.6
					c0-4,0.7-7.6,2.1-10.5c1.4-3,3.3-5.3,5.8-6.9s5.3-2.4,8.6-2.4c2.5,0,4.5,0.4,6,1.2c1.5,0.8,2.6,1.8,3.4,2.8
					c0.8,1,1.4,1.9,1.8,2.6h0.5v-19h5.9v51.4h-5.7v-5.9h-0.7c-0.4,0.7-1.1,1.6-1.9,2.6s-1.9,2-3.4,2.8
					C-3393,1737.2-3394.9,1737.6-3397.4,1737.6z M-3396.6,1732.3c2.4,0,4.4-0.6,6-1.9c1.6-1.2,2.9-3,3.7-5.2
					c0.9-2.2,1.3-4.8,1.3-7.7c0-2.9-0.4-5.4-1.3-7.6s-2.1-3.9-3.7-5.1c-1.6-1.2-3.7-1.8-6.1-1.8c-2.5,0-4.6,0.6-6.3,1.9
					c-1.7,1.3-2.9,3-3.7,5.2c-0.8,2.2-1.2,4.6-1.2,7.3c0,2.7,0.4,5.2,1.3,7.5c0.8,2.2,2.1,4,3.8,5.3
					C-3401.2,1731.6-3399.1,1732.3-3396.6,1732.3z"/>
				<path class="st4" d="M-3352.5,1737.6c-3.5,0-6.5-0.8-9.1-2.5c-2.6-1.7-4.7-4-6.1-6.9c-1.5-3-2.2-6.5-2.2-10.4
					c0-4,0.7-7.5,2.2-10.5s3.5-5.3,6.1-7c2.6-1.7,5.7-2.5,9.1-2.5s6.5,0.8,9.1,2.5c2.6,1.7,4.7,4,6.1,7s2.2,6.5,2.2,10.5
					c0,4-0.7,7.5-2.2,10.4c-1.5,3-3.5,5.3-6.1,6.9C-3345.9,1736.8-3349,1737.6-3352.5,1737.6z M-3352.5,1732.3c2.6,0,4.8-0.7,6.5-2
					c1.7-1.4,3-3.1,3.8-5.3s1.2-4.6,1.2-7.2c0-2.6-0.4-5-1.2-7.2s-2.1-4-3.8-5.4c-1.7-1.4-3.9-2.1-6.5-2.1s-4.8,0.7-6.5,2.1
					c-1.7,1.4-3,3.2-3.8,5.4s-1.2,4.6-1.2,7.2c0,2.6,0.4,5,1.2,7.2s2.1,4,3.8,5.3S-3355.1,1732.3-3352.5,1732.3z"/>
				<path class="st4" d="M-3291.6,1737.6c-3.2,0-6-0.8-8.5-2.4c-2.5-1.6-4.4-3.9-5.8-6.9c-1.4-3-2.1-6.5-2.1-10.6
					c0-4,0.7-7.6,2.1-10.5c1.4-3,3.3-5.3,5.8-6.9s5.3-2.4,8.6-2.4c2.5,0,4.5,0.4,6,1.2c1.5,0.8,2.6,1.8,3.4,2.8
					c0.8,1,1.4,1.9,1.8,2.6h0.5v-19h5.9v51.4h-5.7v-5.9h-0.7c-0.4,0.7-1.1,1.6-1.9,2.6s-1.9,2-3.4,2.8
					C-3287.1,1737.2-3289.1,1737.6-3291.6,1737.6z M-3290.8,1732.3c2.4,0,4.4-0.6,6-1.9c1.6-1.2,2.9-3,3.7-5.2
					c0.9-2.2,1.3-4.8,1.3-7.7c0-2.9-0.4-5.4-1.3-7.6s-2.1-3.9-3.7-5.1c-1.6-1.2-3.7-1.8-6.1-1.8c-2.5,0-4.6,0.6-6.3,1.9
					c-1.7,1.3-2.9,3-3.7,5.2c-0.8,2.2-1.2,4.6-1.2,7.3c0,2.7,0.4,5.2,1.3,7.5c0.8,2.2,2.1,4,3.8,5.3
					C-3295.3,1731.6-3293.3,1732.3-3290.8,1732.3z"/>
				<path class="st4" d="M-3246.1,1737.6c-3.7,0-6.9-0.8-9.6-2.5c-2.7-1.6-4.7-4-6.2-6.9c-1.4-3-2.2-6.4-2.2-10.4
					c0-3.9,0.7-7.4,2.2-10.4c1.4-3,3.5-5.4,6.1-7.1c2.6-1.7,5.6-2.5,9.1-2.5c2,0,4,0.3,5.9,1c2,0.7,3.7,1.8,5.3,3.2
					c1.6,1.5,2.9,3.5,3.8,5.9c1,2.5,1.4,5.5,1.4,9.1v2.5h-29.7v-5.1h23.7c0-2.2-0.4-4.1-1.3-5.8c-0.9-1.7-2.1-3.1-3.7-4
					s-3.4-1.5-5.6-1.5c-2.4,0-4.4,0.6-6.1,1.7s-3,2.7-4,4.5c-0.9,1.9-1.4,3.8-1.4,6v3.4c0,2.9,0.5,5.4,1.5,7.4c1,2,2.4,3.5,4.2,4.6
					s3.9,1.6,6.3,1.6c1.6,0,3-0.2,4.2-0.7s2.4-1.1,3.3-2c0.9-0.9,1.6-2,2.1-3.3l5.7,1.6c-0.6,1.9-1.6,3.6-3,5.1s-3.2,2.6-5.3,3.4
					S-3243.5,1737.6-3246.1,1737.6z"/>
				<path class="st4" d="M-3215.2,1685.5v51.4h-5.9v-51.4H-3215.2z"/>
				<path class="st4" d="M-4223.5,1793v-5.5h38.5v5.5h-16.2v45.8h-6.2V1793H-4223.5z"/>
				<path class="st4" d="M-4160,1839.6c-3.7,0-6.9-0.8-9.6-2.5c-2.7-1.6-4.7-4-6.2-6.9c-1.4-3-2.2-6.4-2.2-10.4
					c0-3.9,0.7-7.4,2.2-10.4c1.4-3,3.5-5.4,6.1-7.1c2.6-1.7,5.6-2.5,9.1-2.5c2,0,4,0.3,5.9,1c2,0.7,3.7,1.8,5.3,3.2
					c1.6,1.5,2.9,3.5,3.8,5.9c1,2.5,1.4,5.5,1.4,9.1v2.5h-29.7v-5.1h23.7c0-2.2-0.4-4.1-1.3-5.8c-0.9-1.7-2.1-3.1-3.7-4
					s-3.4-1.5-5.6-1.5c-2.4,0-4.4,0.6-6.1,1.7s-3,2.7-4,4.5c-0.9,1.9-1.4,3.8-1.4,6v3.4c0,2.9,0.5,5.4,1.5,7.4c1,2,2.4,3.5,4.2,4.6
					s3.9,1.6,6.3,1.6c1.6,0,3-0.2,4.2-0.7s2.4-1.1,3.3-2c0.9-0.9,1.6-2,2.1-3.3l5.7,1.6c-0.6,1.9-1.6,3.6-3,5.1s-3.2,2.6-5.3,3.4
					S-4157.4,1839.6-4160,1839.6z"/>
				<path class="st4" d="M-4107.8,1808.9l-5.3,1.5c-0.3-0.9-0.8-1.8-1.5-2.6c-0.6-0.8-1.5-1.5-2.6-2.1s-2.5-0.8-4.2-0.8
					c-2.4,0-4.3,0.5-5.9,1.6c-1.6,1.1-2.3,2.4-2.3,4.1c0,1.5,0.5,2.6,1.6,3.5c1.1,0.9,2.7,1.6,5,2.1l5.7,1.4c3.4,0.8,6,2.1,7.7,3.8
					c1.7,1.7,2.5,3.9,2.5,6.6c0,2.2-0.6,4.2-1.9,5.9c-1.3,1.7-3,3.1-5.3,4.1c-2.3,1-4.9,1.5-7.9,1.5c-3.9,0-7.2-0.9-9.8-2.6
					c-2.6-1.7-4.2-4.2-4.9-7.5l5.6-1.4c0.5,2.1,1.6,3.6,3,4.7c1.5,1,3.5,1.6,5.9,1.6c2.8,0,5-0.6,6.6-1.8c1.6-1.2,2.4-2.6,2.4-4.3
					c0-1.3-0.5-2.5-1.4-3.4c-0.9-0.9-2.4-1.6-4.3-2l-6.4-1.5c-3.5-0.8-6.1-2.1-7.8-3.9c-1.6-1.8-2.5-4-2.5-6.6
					c0-2.2,0.6-4.1,1.8-5.8c1.2-1.7,2.9-3,5-3.9s4.6-1.4,7.3-1.4c3.8,0,6.8,0.8,9,2.5C-4110.2,1804-4108.7,1806.2-4107.8,1808.9z"/>
				<path class="st4" d="M-4081.4,1800.3v5h-20v-5H-4081.4z M-4095.5,1791.1h5.9v36.7c0,1.7,0.2,2.9,0.7,3.8
					c0.5,0.8,1.1,1.4,1.9,1.7c0.8,0.3,1.6,0.4,2.5,0.4c0.7,0,1.2,0,1.6-0.1s0.8-0.1,1-0.2l1.2,5.3c-0.4,0.2-1,0.3-1.7,0.5
					c-0.7,0.2-1.6,0.2-2.7,0.2c-1.7,0-3.3-0.4-4.9-1.1s-2.9-1.8-4-3.3c-1-1.5-1.6-3.3-1.6-5.6V1791.1z"/>
				<path class="st4" d="M-4069.4,1793.9c-1.2,0-2.1-0.4-3-1.2c-0.8-0.8-1.2-1.7-1.2-2.8s0.4-2,1.2-2.8c0.8-0.8,1.8-1.2,3-1.2
					s2.1,0.4,3,1.2c0.8,0.8,1.2,1.7,1.2,2.8s-0.4,2-1.2,2.8C-4067.3,1793.5-4068.3,1793.9-4069.4,1793.9z M-4072.4,1838.8v-38.5h5.9
					v38.5H-4072.4z"/>
				<path class="st4" d="M-4049.8,1815.7v23.2h-5.9v-38.5h5.7v6h0.5c0.9-2,2.3-3.5,4.1-4.7c1.8-1.2,4.2-1.8,7.1-1.8
					c2.6,0,4.9,0.5,6.8,1.6c2,1.1,3.5,2.7,4.6,4.8c1.1,2.1,1.6,4.9,1.6,8.1v24.5h-5.9v-24.1c0-3-0.8-5.4-2.4-7.1
					c-1.6-1.7-3.7-2.5-6.5-2.5c-1.9,0-3.6,0.4-5.1,1.2s-2.6,2-3.5,3.6C-4049.3,1811.5-4049.8,1813.4-4049.8,1815.7z"/>
				<path class="st4" d="M-3998.8,1854.1c-2.9,0-5.3-0.4-7.4-1.1s-3.8-1.7-5.1-2.9c-1.4-1.2-2.4-2.4-3.2-3.8l4.7-3.3
					c0.5,0.7,1.2,1.5,2,2.4c0.8,0.9,1.9,1.7,3.4,2.4c1.4,0.7,3.3,1,5.6,1c3.1,0,5.7-0.8,7.7-2.3c2-1.5,3-3.9,3-7.1v-7.8h-0.5
					c-0.4,0.7-1,1.6-1.8,2.6c-0.8,1-1.9,1.9-3.4,2.7c-1.5,0.8-3.5,1.2-6,1.2c-3.1,0-5.9-0.7-8.4-2.2c-2.5-1.5-4.4-3.6-5.8-6.4
					c-1.4-2.8-2.1-6.2-2.1-10.2c0-3.9,0.7-7.4,2.1-10.3c1.4-2.9,3.3-5.2,5.8-6.8c2.5-1.6,5.3-2.4,8.6-2.4c2.5,0,4.5,0.4,6,1.2
					c1.5,0.8,2.6,1.8,3.4,2.8c0.8,1,1.4,1.9,1.8,2.6h0.6v-6.1h5.7v39.6c0,3.3-0.7,6-2.2,8.1c-1.5,2.1-3.5,3.6-6,4.6
					C-3992.9,1853.6-3995.7,1854.1-3998.8,1854.1z M-3999,1832.9c2.4,0,4.4-0.5,6-1.6c1.6-1.1,2.9-2.6,3.7-4.7s1.3-4.5,1.3-7.3
					c0-2.8-0.4-5.2-1.3-7.3s-2.1-3.8-3.7-5c-1.6-1.2-3.7-1.8-6.1-1.8c-2.5,0-4.6,0.6-6.3,1.9c-1.7,1.3-2.9,3-3.7,5.1
					c-0.8,2.1-1.2,4.5-1.2,7.1c0,2.7,0.4,5,1.3,7.1c0.8,2,2.1,3.7,3.8,4.8C-4003.6,1832.3-4001.5,1832.9-3999,1832.9z"/>
				<path class="st4" d="M-3935.8,1839.6c-3.5,0-6.5-0.8-9.1-2.5c-2.6-1.7-4.7-4-6.1-6.9c-1.5-3-2.2-6.5-2.2-10.4
					c0-4,0.7-7.5,2.2-10.5s3.5-5.3,6.1-7c2.6-1.7,5.7-2.5,9.1-2.5s6.5,0.8,9.1,2.5c2.6,1.7,4.7,4,6.1,7s2.2,6.5,2.2,10.5
					c0,4-0.7,7.5-2.2,10.4c-1.5,3-3.5,5.3-6.1,6.9C-3929.3,1838.8-3932.3,1839.6-3935.8,1839.6z M-3935.8,1834.3
					c2.6,0,4.8-0.7,6.5-2c1.7-1.4,3-3.1,3.8-5.3s1.2-4.6,1.2-7.2c0-2.6-0.4-5-1.2-7.2s-2.1-4-3.8-5.4c-1.7-1.4-3.9-2.1-6.5-2.1
					s-4.8,0.7-6.5,2.1c-1.7,1.4-3,3.2-3.8,5.4s-1.2,4.6-1.2,7.2c0,2.6,0.4,5,1.2,7.2s2.1,4,3.8,5.3S-3938.5,1834.3-3935.8,1834.3z"
					/>
				<path class="st4" d="M-3909.3,1838.8v-38.5h5.7v5.8h0.4c0.7-1.9,2-3.5,3.8-4.6c1.8-1.2,3.9-1.8,6.2-1.8c0.4,0,1,0,1.6,0
					c0.7,0,1.1,0,1.5,0.1v6c-0.2,0-0.7-0.1-1.4-0.2c-0.7-0.1-1.5-0.2-2.2-0.2c-1.9,0-3.5,0.4-5,1.2s-2.6,1.8-3.5,3.2
					c-0.8,1.4-1.3,2.9-1.3,4.7v24.4H-3909.3z"/>
				<path class="st4" d="M-3880,1793.9c-1.2,0-2.1-0.4-3-1.2c-0.8-0.8-1.2-1.7-1.2-2.8s0.4-2,1.2-2.8c0.8-0.8,1.8-1.2,3-1.2
					s2.1,0.4,3,1.2c0.8,0.8,1.2,1.7,1.2,2.8s-0.4,2-1.2,2.8C-3877.9,1793.5-3878.9,1793.9-3880,1793.9z M-3883,1838.8v-38.5h5.9
					v38.5H-3883z"/>
				<path class="st4" d="M-3850.1,1839.6c-3.7,0-6.9-0.8-9.6-2.5c-2.7-1.6-4.7-4-6.2-6.9c-1.4-3-2.2-6.4-2.2-10.4
					c0-3.9,0.7-7.4,2.2-10.4c1.4-3,3.5-5.4,6.1-7.1c2.6-1.7,5.6-2.5,9.1-2.5c2,0,4,0.3,5.9,1c2,0.7,3.7,1.8,5.3,3.2
					c1.6,1.5,2.9,3.5,3.8,5.9c1,2.5,1.4,5.5,1.4,9.1v2.5h-29.7v-5.1h23.7c0-2.2-0.4-4.1-1.3-5.8c-0.9-1.7-2.1-3.1-3.7-4
					s-3.4-1.5-5.6-1.5c-2.4,0-4.4,0.6-6.1,1.7s-3,2.7-4,4.5c-0.9,1.9-1.4,3.8-1.4,6v3.4c0,2.9,0.5,5.4,1.5,7.4c1,2,2.4,3.5,4.2,4.6
					s3.9,1.6,6.3,1.6c1.6,0,3-0.2,4.2-0.7s2.4-1.1,3.3-2c0.9-0.9,1.6-2,2.1-3.3l5.7,1.6c-0.6,1.9-1.6,3.6-3,5.1s-3.2,2.6-5.3,3.4
					S-3847.5,1839.6-3850.1,1839.6z"/>
				<path class="st4" d="M-3819.2,1815.7v23.2h-5.9v-38.5h5.7v6h0.5c0.9-2,2.3-3.5,4.1-4.7c1.8-1.2,4.2-1.8,7.1-1.8
					c2.6,0,4.9,0.5,6.8,1.6c2,1.1,3.5,2.7,4.6,4.8c1.1,2.1,1.6,4.9,1.6,8.1v24.5h-5.9v-24.1c0-3-0.8-5.4-2.4-7.1
					c-1.6-1.7-3.7-2.5-6.5-2.5c-1.9,0-3.6,0.4-5.1,1.2s-2.6,2-3.5,3.6C-3818.8,1811.5-3819.2,1813.4-3819.2,1815.7z"/>
				<path class="st4" d="M-3767.1,1800.3v5h-20v-5H-3767.1z M-3781.2,1791.1h5.9v36.7c0,1.7,0.2,2.9,0.7,3.8
					c0.5,0.8,1.1,1.4,1.9,1.7c0.8,0.3,1.6,0.4,2.5,0.4c0.7,0,1.2,0,1.6-0.1s0.8-0.1,1-0.2l1.2,5.3c-0.4,0.2-1,0.3-1.7,0.5
					c-0.7,0.2-1.6,0.2-2.7,0.2c-1.7,0-3.3-0.4-4.9-1.1s-2.9-1.8-4-3.3c-1-1.5-1.6-3.3-1.6-5.6V1791.1z"/>
				<path class="st4" d="M-3746.8,1839.7c-2.4,0-4.7-0.5-6.6-1.4c-2-0.9-3.6-2.3-4.7-4c-1.2-1.8-1.8-3.9-1.8-6.4
					c0-2.2,0.4-4,1.3-5.4c0.9-1.4,2-2.5,3.5-3.2c1.5-0.8,3.1-1.4,4.8-1.8c1.8-0.4,3.5-0.7,5.3-0.9c2.3-0.3,4.2-0.5,5.7-0.7
					c1.5-0.2,2.5-0.4,3.2-0.8c0.7-0.4,1-1.1,1-2v-0.2c0-2.5-0.7-4.4-2-5.8c-1.3-1.4-3.4-2.1-6.1-2.1c-2.8,0-5,0.6-6.6,1.9
					c-1.6,1.2-2.7,2.6-3.4,4l-5.6-2c1-2.3,2.3-4.2,4-5.5s3.5-2.2,5.5-2.8s4-0.8,5.9-0.8c1.2,0,2.7,0.1,4.3,0.4
					c1.6,0.3,3.2,0.9,4.7,1.8c1.5,0.9,2.8,2.3,3.8,4.1s1.5,4.3,1.5,7.3v25.4h-5.9v-5.2h-0.3c-0.4,0.8-1.1,1.7-2,2.7
					s-2.2,1.8-3.7,2.4C-3742.7,1839.4-3744.6,1839.7-3746.8,1839.7z M-3745.9,1834.4c2.3,0,4.3-0.5,5.9-1.4c1.6-0.9,2.8-2.1,3.7-3.6
					c0.8-1.5,1.2-3,1.2-4.6v-5.4c-0.3,0.3-0.8,0.6-1.6,0.8c-0.8,0.2-1.8,0.5-2.9,0.6c-1.1,0.2-2.2,0.3-3.2,0.5s-1.9,0.2-2.5,0.3
					c-1.5,0.2-3,0.5-4.3,1s-2.4,1.1-3.2,2c-0.8,0.9-1.2,2.1-1.2,3.6c0,2.1,0.8,3.6,2.3,4.7
					C-3750.2,1833.9-3748.3,1834.4-3745.9,1834.4z"/>
				<path class="st4" d="M-3703.8,1839.6c-3.2,0-6-0.8-8.5-2.4c-2.5-1.6-4.4-3.9-5.8-6.9c-1.4-3-2.1-6.5-2.1-10.6
					c0-4,0.7-7.6,2.1-10.5c1.4-3,3.3-5.3,5.8-6.9s5.3-2.4,8.6-2.4c2.5,0,4.5,0.4,6,1.2c1.5,0.8,2.6,1.8,3.4,2.8
					c0.8,1,1.4,1.9,1.8,2.6h0.5v-19h5.9v51.4h-5.7v-5.9h-0.7c-0.4,0.7-1.1,1.6-1.9,2.6s-1.9,2-3.4,2.8
					C-3699.3,1839.2-3701.3,1839.6-3703.8,1839.6z M-3703,1834.3c2.4,0,4.4-0.6,6-1.9c1.6-1.2,2.9-3,3.7-5.2
					c0.9-2.2,1.3-4.8,1.3-7.7c0-2.9-0.4-5.4-1.3-7.6s-2.1-3.9-3.7-5.1c-1.6-1.2-3.7-1.8-6.1-1.8c-2.5,0-4.6,0.6-6.3,1.9
					c-1.7,1.3-2.9,3-3.7,5.2c-0.8,2.2-1.2,4.6-1.2,7.3c0,2.7,0.4,5.2,1.3,7.5c0.8,2.2,2.1,4,3.8,5.3
					C-3707.5,1833.7-3705.5,1834.3-3703,1834.3z"/>
				<path class="st4" d="M-3658.8,1839.6c-3.5,0-6.5-0.8-9.1-2.5c-2.6-1.7-4.7-4-6.1-6.9c-1.5-3-2.2-6.5-2.2-10.4
					c0-4,0.7-7.5,2.2-10.5s3.5-5.3,6.1-7c2.6-1.7,5.7-2.5,9.1-2.5s6.5,0.8,9.1,2.5c2.6,1.7,4.7,4,6.1,7s2.2,6.5,2.2,10.5
					c0,4-0.7,7.5-2.2,10.4c-1.5,3-3.5,5.3-6.1,6.9C-3652.3,1838.8-3655.4,1839.6-3658.8,1839.6z M-3658.8,1834.3
					c2.6,0,4.8-0.7,6.5-2c1.7-1.4,3-3.1,3.8-5.3s1.2-4.6,1.2-7.2c0-2.6-0.4-5-1.2-7.2s-2.1-4-3.8-5.4c-1.7-1.4-3.9-2.1-6.5-2.1
					s-4.8,0.7-6.5,2.1c-1.7,1.4-3,3.2-3.8,5.4s-1.2,4.6-1.2,7.2c0,2.6,0.4,5,1.2,7.2s2.1,4,3.8,5.3S-3661.5,1834.3-3658.8,1834.3z"
					/>
				<path class="st4" d="M-3601.2,1839.7c-2.4,0-4.7-0.5-6.6-1.4c-2-0.9-3.6-2.3-4.7-4c-1.2-1.8-1.8-3.9-1.8-6.4
					c0-2.2,0.4-4,1.3-5.4c0.9-1.4,2-2.5,3.5-3.2c1.5-0.8,3.1-1.4,4.8-1.8c1.8-0.4,3.5-0.7,5.3-0.9c2.3-0.3,4.2-0.5,5.7-0.7
					c1.5-0.2,2.5-0.4,3.2-0.8c0.7-0.4,1-1.1,1-2v-0.2c0-2.5-0.7-4.4-2-5.8c-1.3-1.4-3.4-2.1-6.1-2.1c-2.8,0-5,0.6-6.6,1.9
					c-1.6,1.2-2.7,2.6-3.4,4l-5.6-2c1-2.3,2.3-4.2,4-5.5s3.5-2.2,5.5-2.8s4-0.8,5.9-0.8c1.2,0,2.7,0.1,4.3,0.4
					c1.6,0.3,3.2,0.9,4.7,1.8c1.5,0.9,2.8,2.3,3.8,4.1s1.5,4.3,1.5,7.3v25.4h-5.9v-5.2h-0.3c-0.4,0.8-1.1,1.7-2,2.7
					s-2.2,1.8-3.7,2.4C-3597,1839.4-3598.9,1839.7-3601.2,1839.7z M-3600.3,1834.4c2.3,0,4.3-0.5,5.9-1.4c1.6-0.9,2.8-2.1,3.7-3.6
					c0.8-1.5,1.2-3,1.2-4.6v-5.4c-0.3,0.3-0.8,0.6-1.6,0.8c-0.8,0.2-1.8,0.5-2.9,0.6c-1.1,0.2-2.2,0.3-3.2,0.5s-1.9,0.2-2.5,0.3
					c-1.5,0.2-3,0.5-4.3,1s-2.4,1.1-3.2,2c-0.8,0.9-1.2,2.1-1.2,3.6c0,2.1,0.8,3.6,2.3,4.7
					C-3604.6,1833.9-3602.6,1834.4-3600.3,1834.4z"/>
				<path class="st4" d="M-3566.7,1787.5v51.4h-5.9v-51.4H-3566.7z"/>
				<path class="st4" d="M-3535.2,1838.8v-51.4h30.8v5.5h-24.6v17.4h22.3v5.5h-22.3v23H-3535.2z"/>
				<path class="st4" d="M-3494.6,1838.8v-38.5h5.7v5.8h0.4c0.7-1.9,2-3.5,3.8-4.6c1.8-1.2,3.9-1.8,6.2-1.8c0.4,0,1,0,1.6,0
					c0.7,0,1.1,0,1.5,0.1v6c-0.2,0-0.7-0.1-1.4-0.2c-0.7-0.1-1.5-0.2-2.2-0.2c-1.9,0-3.5,0.4-5,1.2s-2.6,1.8-3.5,3.2
					c-0.8,1.4-1.3,2.9-1.3,4.7v24.4H-3494.6z"/>
				<path class="st4" d="M-3452.7,1839.6c-3.5,0-6.5-0.8-9.1-2.5c-2.6-1.7-4.7-4-6.1-6.9c-1.5-3-2.2-6.5-2.2-10.4
					c0-4,0.7-7.5,2.2-10.5s3.5-5.3,6.1-7c2.6-1.7,5.7-2.5,9.1-2.5s6.5,0.8,9.1,2.5c2.6,1.7,4.7,4,6.1,7s2.2,6.5,2.2,10.5
					c0,4-0.7,7.5-2.2,10.4c-1.5,3-3.5,5.3-6.1,6.9C-3446.2,1838.8-3449.2,1839.6-3452.7,1839.6z M-3452.7,1834.3
					c2.6,0,4.8-0.7,6.5-2c1.7-1.4,3-3.1,3.8-5.3s1.2-4.6,1.2-7.2c0-2.6-0.4-5-1.2-7.2s-2.1-4-3.8-5.4c-1.7-1.4-3.9-2.1-6.5-2.1
					s-4.8,0.7-6.5,2.1c-1.7,1.4-3,3.2-3.8,5.4s-1.2,4.6-1.2,7.2c0,2.6,0.4,5,1.2,7.2s2.1,4,3.8,5.3S-3455.3,1834.3-3452.7,1834.3z"
					/>
				<path class="st4" d="M-3420.3,1815.7v23.2h-5.9v-38.5h5.7v6h0.5c0.9-2,2.3-3.5,4.1-4.7c1.8-1.2,4.2-1.8,7.1-1.8
					c2.6,0,4.9,0.5,6.8,1.6c2,1.1,3.5,2.7,4.6,4.8c1.1,2.1,1.6,4.9,1.6,8.1v24.5h-5.9v-24.1c0-3-0.8-5.4-2.4-7.1
					c-1.6-1.7-3.7-2.5-6.5-2.5c-1.9,0-3.6,0.4-5.1,1.2s-2.6,2-3.5,3.6C-3419.9,1811.5-3420.3,1813.4-3420.3,1815.7z"/>
				<path class="st4" d="M-3368.1,1800.3v5h-20v-5H-3368.1z M-3382.3,1791.1h5.9v36.7c0,1.7,0.2,2.9,0.7,3.8
					c0.5,0.8,1.1,1.4,1.9,1.7c0.8,0.3,1.6,0.4,2.5,0.4c0.7,0,1.2,0,1.6-0.1s0.8-0.1,1-0.2l1.2,5.3c-0.4,0.2-1,0.3-1.7,0.5
					c-0.7,0.2-1.6,0.2-2.7,0.2c-1.7,0-3.3-0.4-4.9-1.1s-2.9-1.8-4-3.3c-1-1.5-1.6-3.3-1.6-5.6V1791.1z"/>
				<path class="st4" d="M-3337.1,1814v5.5h-22.5v-5.5H-3337.1z"/>
				<path class="st4" d="M-3310.5,1839.6c-3.7,0-6.9-0.8-9.6-2.5c-2.7-1.6-4.7-4-6.2-6.9c-1.4-3-2.2-6.4-2.2-10.4
					c0-3.9,0.7-7.4,2.2-10.4c1.4-3,3.5-5.4,6.1-7.1c2.6-1.7,5.6-2.5,9.1-2.5c2,0,4,0.3,5.9,1c2,0.7,3.7,1.8,5.3,3.2
					c1.6,1.5,2.9,3.5,3.8,5.9c1,2.5,1.4,5.5,1.4,9.1v2.5h-29.7v-5.1h23.7c0-2.2-0.4-4.1-1.3-5.8c-0.9-1.7-2.1-3.1-3.7-4
					s-3.4-1.5-5.6-1.5c-2.4,0-4.4,0.6-6.1,1.7s-3,2.7-4,4.5c-0.9,1.9-1.4,3.8-1.4,6v3.4c0,2.9,0.5,5.4,1.5,7.4c1,2,2.4,3.5,4.2,4.6
					s3.9,1.6,6.3,1.6c1.6,0,3-0.2,4.2-0.7s2.4-1.1,3.3-2c0.9-0.9,1.6-2,2.1-3.3l5.7,1.6c-0.6,1.9-1.6,3.6-3,5.1s-3.2,2.6-5.3,3.4
					S-3307.9,1839.6-3310.5,1839.6z"/>
				<path class="st4" d="M-3279.6,1815.7v23.2h-5.9v-38.5h5.7v6h0.5c0.9-2,2.3-3.5,4.1-4.7c1.8-1.2,4.2-1.8,7.1-1.8
					c2.6,0,4.9,0.5,6.8,1.6c2,1.1,3.5,2.7,4.6,4.8c1.1,2.1,1.6,4.9,1.6,8.1v24.5h-5.9v-24.1c0-3-0.8-5.4-2.4-7.1
					c-1.6-1.7-3.7-2.5-6.5-2.5c-1.9,0-3.6,0.4-5.1,1.2s-2.6,2-3.5,3.6C-3279.2,1811.5-3279.6,1813.4-3279.6,1815.7z"/>
				<path class="st4" d="M-3229.7,1839.6c-3.2,0-6-0.8-8.5-2.4c-2.5-1.6-4.4-3.9-5.8-6.9c-1.4-3-2.1-6.5-2.1-10.6
					c0-4,0.7-7.6,2.1-10.5c1.4-3,3.3-5.3,5.8-6.9s5.3-2.4,8.6-2.4c2.5,0,4.5,0.4,6,1.2c1.5,0.8,2.6,1.8,3.4,2.8
					c0.8,1,1.4,1.9,1.8,2.6h0.5v-19h5.9v51.4h-5.7v-5.9h-0.7c-0.4,0.7-1.1,1.6-1.9,2.6s-1.9,2-3.4,2.8
					C-3225.2,1839.2-3227.2,1839.6-3229.7,1839.6z M-3228.9,1834.3c2.4,0,4.4-0.6,6-1.9c1.6-1.2,2.9-3,3.7-5.2
					c0.9-2.2,1.3-4.8,1.3-7.7c0-2.9-0.4-5.4-1.3-7.6s-2.1-3.9-3.7-5.1c-1.6-1.2-3.7-1.8-6.1-1.8c-2.5,0-4.6,0.6-6.3,1.9
					c-1.7,1.3-2.9,3-3.7,5.2c-0.8,2.2-1.2,4.6-1.2,7.3c0,2.7,0.4,5.2,1.3,7.5c0.8,2.2,2.1,4,3.8,5.3
					C-3233.4,1833.7-3231.4,1834.3-3228.9,1834.3z"/>
				<path class="st4" d="M-3196.1,1839.2c-1.2,0-2.3-0.4-3.2-1.3c-0.9-0.9-1.3-1.9-1.3-3.2s0.4-2.3,1.3-3.2c0.9-0.9,1.9-1.3,3.2-1.3
					s2.3,0.4,3.2,1.3c0.9,0.9,1.3,1.9,1.3,3.2c0,0.8-0.2,1.6-0.6,2.3c-0.4,0.7-1,1.2-1.6,1.6
					C-3194.5,1839-3195.2,1839.2-3196.1,1839.2z"/>
			</g>
		</g>
		<g>
			<g>
				<path class="st4" d="M-4213.1,1932v57.1h-6.9V1932H-4213.1z"/>
				<path class="st4" d="M-4187.6,1990c-2.7,0-5.2-0.5-7.4-1.5c-2.2-1-4-2.5-5.3-4.5c-1.3-2-2-4.3-2-7.1c0-2.5,0.5-4.4,1.4-6
					c1-1.5,2.3-2.7,3.9-3.6s3.4-1.5,5.4-2s3.9-0.8,5.9-1c2.6-0.3,4.7-0.6,6.3-0.8c1.6-0.2,2.8-0.5,3.6-0.9c0.8-0.4,1.1-1.2,1.1-2.2
					v-0.2c0-2.7-0.7-4.9-2.2-6.4c-1.5-1.5-3.8-2.3-6.8-2.3c-3.1,0-5.6,0.7-7.4,2.1c-1.8,1.4-3,2.8-3.8,4.4l-6.2-2.2
					c1.1-2.6,2.6-4.6,4.5-6.1c1.9-1.5,3.9-2.5,6.1-3.1c2.2-0.6,4.4-0.9,6.6-0.9c1.4,0,3,0.2,4.8,0.5c1.8,0.3,3.5,1,5.2,2
					c1.7,1,3.1,2.5,4.2,4.5c1.1,2,1.7,4.7,1.7,8.1v28.2h-6.6v-5.8h-0.3c-0.4,0.9-1.2,1.9-2.2,3s-2.4,2-4.2,2.7
					C-4183,1989.7-4185.1,1990-4187.6,1990z M-4186.6,1984.1c2.6,0,4.8-0.5,6.6-1.5c1.8-1,3.1-2.3,4.1-4s1.4-3.3,1.4-5.1v-6
					c-0.3,0.3-0.9,0.6-1.8,0.9c-0.9,0.3-2,0.5-3.2,0.7s-2.4,0.4-3.5,0.5c-1.1,0.1-2.1,0.3-2.8,0.3c-1.7,0.2-3.3,0.6-4.8,1.1
					c-1.5,0.5-2.7,1.2-3.6,2.2s-1.4,2.3-1.4,4c0,2.3,0.9,4,2.5,5.2C-4191.4,1983.6-4189.2,1984.1-4186.6,1984.1z"/>
				<path class="st4" d="M-4138.7,2006c-3.2,0-5.9-0.4-8.2-1.2c-2.3-0.8-4.2-1.9-5.7-3.2c-1.5-1.3-2.7-2.7-3.6-4.2l5.2-3.7
					c0.6,0.8,1.3,1.7,2.3,2.7s2.2,1.9,3.7,2.6c1.6,0.8,3.7,1.1,6.3,1.1c3.5,0,6.3-0.8,8.6-2.5s3.4-4.3,3.4-7.9v-8.7h-0.6
					c-0.5,0.8-1.2,1.7-2,2.9c-0.9,1.1-2.1,2.2-3.8,3c-1.6,0.9-3.9,1.3-6.6,1.3c-3.5,0-6.6-0.8-9.3-2.5s-4.9-4-6.5-7.1
					c-1.6-3.1-2.4-6.9-2.4-11.4c0-4.4,0.8-8.2,2.3-11.5s3.7-5.8,6.4-7.6c2.7-1.8,5.9-2.7,9.5-2.7c2.8,0,5,0.5,6.6,1.4
					c1.6,0.9,2.9,2,3.8,3.1c0.9,1.2,1.6,2.1,2,2.9h0.7v-6.8h6.4v44c0,3.7-0.8,6.7-2.5,9c-1.7,2.3-3.9,4-6.7,5.1
					S-4135.2,2006-4138.7,2006z M-4138.9,1982.5c2.6,0,4.9-0.6,6.7-1.8c1.8-1.2,3.2-2.9,4.2-5.2s1.4-5,1.4-8.1
					c0-3.1-0.5-5.8-1.4-8.2c-0.9-2.4-2.3-4.2-4.1-5.5c-1.8-1.3-4.1-2-6.7-2c-2.8,0-5.1,0.7-7,2.1s-3.2,3.3-4.2,5.7
					c-0.9,2.4-1.4,5-1.4,7.9c0,3,0.5,5.6,1.4,7.9s2.3,4.1,4.2,5.4S-4141.6,1982.5-4138.9,1982.5z"/>
				<path class="st4" d="M-4090.7,1989.9c-3.9,0-7.2-0.9-10.2-2.8s-5.2-4.4-6.8-7.7c-1.6-3.3-2.4-7.2-2.4-11.6
					c0-4.5,0.8-8.4,2.4-11.7c1.6-3.3,3.9-5.9,6.8-7.7s6.3-2.8,10.2-2.8s7.2,0.9,10.2,2.8s5.2,4.4,6.8,7.7c1.6,3.3,2.4,7.2,2.4,11.7
					c0,4.4-0.8,8.3-2.4,11.6c-1.6,3.3-3.9,5.9-6.8,7.7S-4086.9,1989.9-4090.7,1989.9z M-4090.7,1984c2.9,0,5.4-0.8,7.2-2.3
					c1.9-1.5,3.3-3.5,4.2-5.9c0.9-2.5,1.4-5.1,1.4-8c0-2.9-0.5-5.5-1.4-8s-2.3-4.5-4.2-6c-1.9-1.5-4.3-2.3-7.2-2.3s-5.3,0.8-7.2,2.3
					c-1.9,1.5-3.3,3.5-4.2,6s-1.4,5.1-1.4,8c0,2.9,0.5,5.5,1.4,8c0.9,2.5,2.3,4.4,4.2,5.9C-4096.1,1983.3-4093.7,1984-4090.7,1984z"
					/>
				<path class="st4" d="M-4038.3,1989V1932h6.9v50.9h26.5v6.1H-4038.3z"/>
				<path class="st4" d="M-3982.5,1990c-2.7,0-5.2-0.5-7.4-1.5c-2.2-1-4-2.5-5.3-4.5c-1.3-2-2-4.3-2-7.1c0-2.5,0.5-4.4,1.4-6
					c1-1.5,2.3-2.7,3.9-3.6s3.4-1.5,5.4-2s3.9-0.8,5.9-1c2.6-0.3,4.7-0.6,6.3-0.8c1.6-0.2,2.8-0.5,3.6-0.9c0.8-0.4,1.1-1.2,1.1-2.2
					v-0.2c0-2.7-0.7-4.9-2.2-6.4c-1.5-1.5-3.8-2.3-6.8-2.3c-3.1,0-5.6,0.7-7.4,2.1c-1.8,1.4-3,2.8-3.8,4.4l-6.2-2.2
					c1.1-2.6,2.6-4.6,4.5-6.1c1.9-1.5,3.9-2.5,6.1-3.1c2.2-0.6,4.4-0.9,6.6-0.9c1.4,0,3,0.2,4.8,0.5c1.8,0.3,3.5,1,5.2,2
					c1.7,1,3.1,2.5,4.2,4.5c1.1,2,1.7,4.7,1.7,8.1v28.2h-6.6v-5.8h-0.3c-0.4,0.9-1.2,1.9-2.2,3s-2.4,2-4.2,2.7
					C-3977.9,1989.7-3980,1990-3982.5,1990z M-3981.5,1984.1c2.6,0,4.8-0.5,6.6-1.5c1.8-1,3.1-2.3,4.1-4s1.4-3.3,1.4-5.1v-6
					c-0.3,0.3-0.9,0.6-1.8,0.9c-0.9,0.3-2,0.5-3.2,0.7s-2.4,0.4-3.5,0.5c-1.1,0.1-2.1,0.3-2.8,0.3c-1.7,0.2-3.3,0.6-4.8,1.1
					c-1.5,0.5-2.7,1.2-3.6,2.2s-1.4,2.3-1.4,4c0,2.3,0.9,4,2.5,5.2C-3986.3,1983.6-3984.1,1984.1-3981.5,1984.1z"/>
				<path class="st4" d="M-3920.5,1955.8l-5.9,1.7c-0.4-1-0.9-1.9-1.6-2.9c-0.7-0.9-1.7-1.7-2.9-2.3c-1.2-0.6-2.8-0.9-4.7-0.9
					c-2.6,0-4.8,0.6-6.5,1.8s-2.6,2.7-2.6,4.6c0,1.6,0.6,2.9,1.8,3.9s3,1.7,5.6,2.4l6.4,1.6c3.8,0.9,6.7,2.3,8.6,4.2
					c1.9,1.9,2.8,4.4,2.8,7.3c0,2.5-0.7,4.6-2.1,6.6c-1.4,1.9-3.4,3.5-5.9,4.6c-2.5,1.1-5.4,1.7-8.8,1.7c-4.4,0-8-0.9-10.8-2.8
					c-2.9-1.9-4.7-4.7-5.4-8.3l6.2-1.6c0.6,2.3,1.7,4,3.4,5.2c1.7,1.2,3.8,1.7,6.5,1.7c3.1,0,5.5-0.7,7.3-2c1.8-1.3,2.7-2.9,2.7-4.7
					c0-1.5-0.5-2.7-1.6-3.7c-1-1-2.6-1.8-4.8-2.3l-7.1-1.7c-3.9-0.9-6.8-2.4-8.6-4.3c-1.8-2-2.7-4.4-2.7-7.4c0-2.4,0.7-4.6,2-6.4
					c1.4-1.9,3.2-3.3,5.6-4.4c2.4-1.1,5.1-1.6,8.1-1.6c4.2,0,7.6,0.9,10,2.8C-3923.3,1950.3-3921.5,1952.8-3920.5,1955.8z"/>
				<path class="st4" d="M-3891.2,1946.2v5.6h-22.2v-5.6H-3891.2z M-3906.9,1936h6.6v40.8c0,1.9,0.3,3.2,0.8,4.2
					c0.5,0.9,1.3,1.5,2.1,1.8c0.9,0.3,1.8,0.5,2.7,0.5c0.7,0,1.3,0,1.8-0.1c0.5-0.1,0.8-0.2,1.1-0.2l1.3,5.9
					c-0.4,0.2-1.1,0.3-1.9,0.5c-0.8,0.2-1.8,0.3-3,0.3c-1.9,0-3.7-0.4-5.4-1.2c-1.8-0.8-3.2-2-4.4-3.7c-1.2-1.6-1.7-3.7-1.7-6.2
					V1936z"/>
				<path class="st4" d="M-3881.3,1989v-42.8h6.4v6.5h0.4c0.8-2.1,2.2-3.8,4.2-5.2s4.3-2,6.9-2c0.5,0,1.1,0,1.8,0
					c0.7,0,1.3,0,1.6,0.1v6.7c-0.2-0.1-0.7-0.1-1.5-0.3c-0.8-0.1-1.6-0.2-2.5-0.2c-2.1,0-3.9,0.4-5.6,1.3c-1.6,0.9-2.9,2.1-3.8,3.6
					c-0.9,1.5-1.4,3.2-1.4,5.2v27.1H-3881.3z"/>
				<path class="st4" d="M-3839.5,1990c-2.7,0-5.2-0.5-7.4-1.5c-2.2-1-4-2.5-5.3-4.5c-1.3-2-2-4.3-2-7.1c0-2.5,0.5-4.4,1.4-6
					c1-1.5,2.3-2.7,3.9-3.6s3.4-1.5,5.4-2s3.9-0.8,5.9-1c2.6-0.3,4.7-0.6,6.3-0.8c1.6-0.2,2.8-0.5,3.6-0.9c0.8-0.4,1.1-1.2,1.1-2.2
					v-0.2c0-2.7-0.7-4.9-2.2-6.4c-1.5-1.5-3.8-2.3-6.8-2.3c-3.1,0-5.6,0.7-7.4,2.1c-1.8,1.4-3,2.8-3.8,4.4l-6.2-2.2
					c1.1-2.6,2.6-4.6,4.5-6.1c1.9-1.5,3.9-2.5,6.1-3.1c2.2-0.6,4.4-0.9,6.6-0.9c1.4,0,3,0.2,4.8,0.5c1.8,0.3,3.5,1,5.2,2
					c1.7,1,3.1,2.5,4.2,4.5c1.1,2,1.7,4.7,1.7,8.1v28.2h-6.6v-5.8h-0.3c-0.4,0.9-1.2,1.9-2.2,3s-2.4,2-4.2,2.7
					C-3834.9,1989.7-3837,1990-3839.5,1990z M-3838.5,1984.1c2.6,0,4.8-0.5,6.6-1.5c1.8-1,3.1-2.3,4.1-4s1.4-3.3,1.4-5.1v-6
					c-0.3,0.3-0.9,0.6-1.8,0.9c-0.9,0.3-2,0.5-3.2,0.7s-2.4,0.4-3.5,0.5c-1.1,0.1-2.1,0.3-2.8,0.3c-1.7,0.2-3.3,0.6-4.8,1.1
					c-1.5,0.5-2.7,1.2-3.6,2.2s-1.4,2.3-1.4,4c0,2.3,0.9,4,2.5,5.2C-3843.3,1983.6-3841.1,1984.1-3838.5,1984.1z"/>
				<path class="st4" d="M-3784.9,1989V1932h19.3c4.5,0,8.1,0.8,11,2.3c2.9,1.5,5,3.6,6.4,6.2s2.1,5.6,2.1,9s-0.7,6.3-2.1,8.9
					c-1.4,2.6-3.5,4.6-6.3,6.1c-2.8,1.5-6.5,2.2-10.9,2.2h-15.6v-6.2h15.4c3,0,5.5-0.4,7.4-1.3s3.2-2.2,4.1-3.8
					c0.8-1.6,1.3-3.6,1.3-5.9c0-2.3-0.4-4.3-1.3-6s-2.2-3-4.1-4c-1.9-0.9-4.4-1.4-7.4-1.4h-12.1v50.9H-3784.9z M-3758,1963.4
					l14,25.6h-8l-13.8-25.6H-3758z"/>
				<path class="st4" d="M-3718.2,1989.9c-3.9,0-7.2-0.9-10.2-2.8s-5.2-4.4-6.8-7.7c-1.6-3.3-2.4-7.2-2.4-11.6
					c0-4.5,0.8-8.4,2.4-11.7c1.6-3.3,3.9-5.9,6.8-7.7s6.3-2.8,10.2-2.8s7.2,0.9,10.2,2.8s5.2,4.4,6.8,7.7c1.6,3.3,2.4,7.2,2.4,11.7
					c0,4.4-0.8,8.3-2.4,11.6c-1.6,3.3-3.9,5.9-6.8,7.7S-3714.3,1989.9-3718.2,1989.9z M-3718.2,1984c2.9,0,5.4-0.8,7.2-2.3
					c1.9-1.5,3.3-3.5,4.2-5.9c0.9-2.5,1.4-5.1,1.4-8c0-2.9-0.5-5.5-1.4-8s-2.3-4.5-4.2-6c-1.9-1.5-4.3-2.3-7.2-2.3s-5.3,0.8-7.2,2.3
					c-1.9,1.5-3.3,3.5-4.2,6s-1.4,5.1-1.4,8c0,2.9,0.5,5.5,1.4,8c0.9,2.5,2.3,4.4,4.2,5.9C-3723.6,1983.3-3721.1,1984-3718.2,1984z"
					/>
				<path class="st4" d="M-3672.6,1989.9c-3.6,0-6.7-0.9-9.4-2.7c-2.7-1.8-4.9-4.4-6.4-7.7c-1.5-3.3-2.3-7.2-2.3-11.8
					c0-4.5,0.8-8.4,2.3-11.7s3.7-5.9,6.4-7.7c2.7-1.8,5.9-2.7,9.5-2.7c2.8,0,5,0.5,6.6,1.4c1.6,0.9,2.9,2,3.7,3.1
					c0.9,1.2,1.5,2.1,2,2.9h0.6V1932h6.6v57.1h-6.4v-6.6h-0.8c-0.5,0.8-1.2,1.8-2.1,2.9s-2.2,2.2-3.8,3.1
					C-3667.7,1989.5-3669.9,1989.9-3672.6,1989.9z M-3671.7,1984c2.6,0,4.9-0.7,6.7-2.1s3.2-3.3,4.2-5.8c0.9-2.5,1.4-5.3,1.4-8.5
					c0-3.2-0.5-6-1.4-8.4c-0.9-2.4-2.3-4.3-4.1-5.6s-4.1-2-6.7-2c-2.8,0-5.1,0.7-7,2.1s-3.2,3.3-4.2,5.8c-0.9,2.4-1.4,5.1-1.4,8.2
					c0,3,0.5,5.8,1.4,8.3c0.9,2.5,2.3,4.5,4.2,5.9S-3674.5,1984-3671.7,1984z"/>
				<path class="st4" d="M-3640.1,1989v-42.8h6.4v6.5h0.4c0.8-2.1,2.2-3.8,4.2-5.2s4.3-2,6.9-2c0.5,0,1.1,0,1.8,0
					c0.7,0,1.3,0,1.6,0.1v6.7c-0.2-0.1-0.7-0.1-1.5-0.3c-0.8-0.1-1.6-0.2-2.5-0.2c-2.1,0-3.9,0.4-5.6,1.3c-1.6,0.9-2.9,2.1-3.8,3.6
					c-0.9,1.5-1.4,3.2-1.4,5.2v27.1H-3640.1z"/>
				<path class="st4" d="M-3610.9,1989v-42.8h6.6v42.8H-3610.9z M-3610.5,1940.4l6.8-12.9h7.7l-8.7,12.9H-3610.5z"/>
				<path class="st4" d="M-3575,2006c-3.2,0-5.9-0.4-8.2-1.2c-2.3-0.8-4.2-1.9-5.7-3.2c-1.5-1.3-2.7-2.7-3.6-4.2l5.2-3.7
					c0.6,0.8,1.3,1.7,2.3,2.7s2.2,1.9,3.7,2.6c1.6,0.8,3.7,1.1,6.3,1.1c3.5,0,6.3-0.8,8.6-2.5s3.4-4.3,3.4-7.9v-8.7h-0.6
					c-0.5,0.8-1.2,1.7-2,2.9c-0.9,1.1-2.1,2.2-3.8,3c-1.6,0.9-3.9,1.3-6.6,1.3c-3.5,0-6.6-0.8-9.3-2.5s-4.9-4-6.5-7.1
					c-1.6-3.1-2.4-6.9-2.4-11.4c0-4.4,0.8-8.2,2.3-11.5s3.7-5.8,6.4-7.6c2.7-1.8,5.9-2.7,9.5-2.7c2.8,0,5,0.5,6.6,1.4
					c1.6,0.9,2.9,2,3.8,3.1c0.9,1.2,1.6,2.1,2,2.9h0.7v-6.8h6.4v44c0,3.7-0.8,6.7-2.5,9c-1.7,2.3-3.9,4-6.7,5.1
					S-3571.6,2006-3575,2006z M-3575.2,1982.5c2.6,0,4.9-0.6,6.7-1.8c1.8-1.2,3.2-2.9,4.2-5.2s1.4-5,1.4-8.1c0-3.1-0.5-5.8-1.4-8.2
					c-0.9-2.4-2.3-4.2-4.1-5.5c-1.8-1.3-4.1-2-6.7-2c-2.8,0-5.1,0.7-7,2.1s-3.2,3.3-4.2,5.7c-0.9,2.4-1.4,5-1.4,7.9
					c0,3,0.5,5.6,1.4,7.9s2.3,4.1,4.2,5.4S-3578,1982.5-3575.2,1982.5z"/>
				<path class="st4" d="M-3517.5,1971.5v-25.3h6.6v42.8h-6.6v-7.2h-0.4c-1,2.2-2.6,4-4.7,5.5c-2.1,1.5-4.8,2.3-8,2.3
					c-2.7,0-5.1-0.6-7.1-1.8c-2.1-1.2-3.7-3-4.9-5.4c-1.2-2.4-1.8-5.4-1.8-9v-27.2h6.6v26.8c0,3.1,0.9,5.6,2.6,7.5
					c1.8,1.9,4,2.8,6.7,2.8c1.6,0,3.3-0.4,5-1.3c1.7-0.8,3.1-2.1,4.3-3.8C-3518,1976.4-3517.5,1974.2-3517.5,1971.5z"/>
				<path class="st4" d="M-3480.9,1989.9c-4.1,0-7.7-0.9-10.7-2.7c-3-1.8-5.3-4.4-6.9-7.7s-2.4-7.1-2.4-11.5c0-4.4,0.8-8.3,2.4-11.6
					s3.9-6,6.7-7.9c2.9-1.9,6.3-2.8,10.1-2.8c2.2,0,4.4,0.4,6.6,1.1c2.2,0.7,4.2,1.9,5.9,3.6c1.8,1.7,3.2,3.9,4.3,6.6
					c1.1,2.7,1.6,6.1,1.6,10.1v2.8h-33v-5.7h26.3c0-2.4-0.5-4.6-1.4-6.5s-2.3-3.4-4.1-4.5s-3.8-1.6-6.2-1.6c-2.6,0-4.9,0.6-6.8,1.9
					c-1.9,1.3-3.4,3-4.4,5c-1,2.1-1.5,4.3-1.5,6.6v3.8c0,3.2,0.6,6,1.7,8.2c1.1,2.2,2.7,3.9,4.7,5.1c2,1.2,4.3,1.7,7,1.7
					c1.7,0,3.3-0.2,4.7-0.7c1.4-0.5,2.6-1.2,3.6-2.2c1-1,1.8-2.2,2.4-3.7l6.4,1.8c-0.7,2.2-1.8,4-3.4,5.7c-1.6,1.6-3.5,2.9-5.9,3.8
					C-3475.4,1989.5-3478,1989.9-3480.9,1989.9z"/>
				<path class="st4" d="M-3454.4,1989v-5l24.3-31.2v-0.4h-23.5v-6.1h32v5.2l-23.6,31v0.4h24.4v6.1H-3454.4z"/>
			</g>
		</g>
	</g>
</g>
<g>
	<rect x="-8631.5" y="1105.5" class="st0" width="2550" height="3300"/>
	<g class="st2">
		<path class="st1" d="M-6130.7,2156.6c33.6,0.1,66.3-3.7,97.7-10.9l0.5-176.5c-30.2,12.1-63.2,18.8-97.8,18.7
			c-144-0.4-260.9-117.9-260.5-262c0.4-144,117.9-260.9,262-260.5c34.5,0.1,67.5,7,97.6,19.3l0.5-176.5
			c-31.4-7.4-64.1-11.4-97.7-11.5c-237.1-0.7-430.5,191.6-431.2,428.7C-6560.1,1962.5-6367.8,2156-6130.7,2156.6z"/>
	</g>
	<path class="st3" d="M-7366.8,1105.8c-7.8,41.7-25.9,82-54.6,117c-91.3,111.4-256.3,127.7-367.6,36.3l-107,130.4
		c183.3,150.3,454.7,123.5,605.1-59.7c54.5-66.4,85.7-144.4,94.6-224H-7366.8z"/>
	<g class="st2">
		<path class="st1" d="M-8255.5,2852.5c-89.1-73.1-199-104.3-305.8-96V2926c68.8-8.8,141,9.6,198.8,56.9
			c111.4,91.3,127.7,256.3,36.3,367.6l130.4,107C-8045.4,3274.3-8072.2,3002.9-8255.5,2852.5z"/>
	</g>
	<g>
		<path class="st1" d="M-7673.9,4404.5h212.7l415.5-455.2c36.9-36.5,98.3-0.9,85,49.3l-6,8.6c-82.4,117.9-134.1,254.4-150.5,397.3
			l0,0h965.6c0,0-113-226-129.6-452.1l-7.2-888.7c-2.4-300.9-129.8-588.9-356.2-787.2c-66.4-58.1-138.5-107.5-213-136.3
			c-2.6-1-5.3,0.9-5.3,3.7v209.5c0,0-261.6,3.2-372.3,312.8c-5.3,14.8-14.6,28-26.8,37.9c-16.4,13.3-43,31.8-79.6,48.3
			c-3.2-3.2-55.9,241.1,292.6,246.4c37.3,0.6,74.1,8.9,107.5,25.6c57.1,28.6,131.2,84.2,142.4,182.5c6.5,57.2-11.7,114.4-47.6,159.4
			L-7673.9,4404.5z M-7002.4,2708.5c-36.3,0-65.8-29.5-65.8-65.8c0-36.3,29.5-65.8,65.8-65.8c36.3,0,65.8,29.5,65.8,65.8
			C-6936.6,2679.1-6966.1,2708.5-7002.4,2708.5z"/>
		<text transform="matrix(1 0 0 1 -8561.6348 1995.9688)"><tspan x="0" y="0" class="st4" style="font-family:'Futura-Bold'; font-size:278.8091px;">Frontend </tspan><tspan x="0" y="334.6" class="st4" style="font-family:'Futura-Bold'; font-size:278.8091px;">Testing</tspan></text>
		<g>
			<g>
				<g>
					<path class="st4" d="M-8521.1,3780.4h6.3v34.5c0,3.9-0.9,7.2-2.8,10c-1.9,2.8-4.3,4.9-7.4,6.3c-3.1,1.5-6.4,2.2-10.1,2.2
						s-7-0.7-10.1-2.2c-3.1-1.5-5.5-3.6-7.4-6.3c-1.8-2.8-2.8-6.1-2.8-10v-34.5h6.3v34.5c0,2.7,0.6,5,1.9,6.9c1.3,1.9,3,3.3,5.1,4.3
						c2.1,1,4.4,1.5,6.9,1.5s4.8-0.5,6.9-1.5c2.1-1,3.8-2.4,5.1-4.3c1.3-1.9,1.9-4.2,1.9-6.9V3780.4z"/>
					<path class="st4" d="M-8497,3809v23.5h-6v-39.1h5.8v6.1h0.5c0.9-2,2.3-3.6,4.2-4.8c1.9-1.2,4.3-1.8,7.2-1.8c2.6,0,5,0.5,7,1.6
						c2,1.1,3.5,2.7,4.6,4.9c1.1,2.2,1.7,4.9,1.7,8.3v24.8h-6v-24.4c0-3.1-0.8-5.5-2.4-7.2c-1.6-1.7-3.8-2.6-6.6-2.6
						c-1.9,0-3.6,0.4-5.1,1.2s-2.7,2-3.6,3.6C-8496.5,3804.8-8497,3806.7-8497,3809z"/>
					<path class="st4" d="M-8449.5,3833.4c-2.5,0-4.7-0.5-6.7-1.4c-2-0.9-3.6-2.3-4.8-4.1c-1.2-1.8-1.8-4-1.8-6.5
						c0-2.2,0.4-4.1,1.3-5.5c0.9-1.4,2.1-2.5,3.5-3.3s3.1-1.4,4.9-1.8c1.8-0.4,3.6-0.7,5.4-1c2.4-0.3,4.3-0.5,5.8-0.7
						c1.5-0.2,2.6-0.4,3.3-0.8c0.7-0.4,1-1.1,1-2v-0.2c0-2.5-0.7-4.5-2-5.9s-3.4-2.1-6.2-2.1c-2.9,0-5.1,0.6-6.7,1.9
						c-1.6,1.3-2.8,2.6-3.4,4l-5.7-2c1-2.4,2.4-4.2,4.1-5.6c1.7-1.3,3.6-2.3,5.6-2.8c2-0.5,4-0.8,6-0.8c1.3,0,2.7,0.1,4.3,0.4
						s3.2,0.9,4.8,1.8c1.5,0.9,2.8,2.3,3.8,4.1c1,1.9,1.5,4.3,1.5,7.4v25.8h-6v-5.3h-0.3c-0.4,0.8-1.1,1.8-2,2.7s-2.2,1.8-3.8,2.5
						C-8445.3,3833.1-8447.2,3833.4-8449.5,3833.4z M-8448.6,3828c2.4,0,4.4-0.5,6-1.4s2.9-2.1,3.7-3.6s1.3-3,1.3-4.7v-5.5
						c-0.3,0.3-0.8,0.6-1.7,0.8s-1.8,0.5-3,0.6c-1.1,0.2-2.2,0.3-3.2,0.5s-1.9,0.2-2.5,0.3c-1.6,0.2-3,0.5-4.4,1
						c-1.3,0.4-2.4,1.1-3.3,2c-0.8,0.9-1.2,2.1-1.2,3.6c0,2.1,0.8,3.7,2.3,4.7C-8453,3827.5-8451,3828-8448.6,3828z"/>
					<path class="st4" d="M-8397.4,3786.9c-1.2,0-2.2-0.4-3-1.2c-0.8-0.8-1.3-1.8-1.3-2.9c0-1.1,0.4-2.1,1.3-2.9s1.8-1.2,3-1.2
						s2.2,0.4,3,1.2c0.8,0.8,1.3,1.8,1.3,2.9c0,1.1-0.4,2.1-1.3,2.9C-8395.2,3786.5-8396.2,3786.9-8397.4,3786.9z M-8400.4,3832.5
						v-39.1h6v39.1H-8400.4z"/>
					<path class="st4" d="M-8377.4,3809v23.5h-6v-39.1h5.8v6.1h0.5c0.9-2,2.3-3.6,4.2-4.8c1.9-1.2,4.3-1.8,7.2-1.8
						c2.6,0,5,0.5,7,1.6s3.5,2.7,4.6,4.9c1.1,2.2,1.7,4.9,1.7,8.3v24.8h-6v-24.4c0-3.1-0.8-5.5-2.4-7.2c-1.6-1.7-3.8-2.6-6.6-2.6
						c-1.9,0-3.6,0.4-5.1,1.2c-1.5,0.8-2.7,2-3.6,3.6S-8377.4,3806.7-8377.4,3809z"/>
					<path class="st4" d="M-8324.5,3793.4v5.1h-20.3v-5.1H-8324.5z M-8338.8,3784.1h6v37.3c0,1.7,0.3,3,0.8,3.8
						c0.5,0.8,1.1,1.4,1.9,1.7s1.6,0.4,2.5,0.4c0.7,0,1.2,0,1.6-0.1s0.8-0.1,1-0.2l1.2,5.4c-0.4,0.2-1,0.3-1.7,0.5
						c-0.7,0.2-1.7,0.2-2.8,0.2c-1.7,0-3.4-0.4-5-1.1c-1.6-0.7-3-1.8-4-3.3c-1.1-1.5-1.6-3.4-1.6-5.7V3784.1z"/>
					<path class="st4" d="M-8315.4,3832.5v-39.1h5.8v5.9h0.4c0.7-1.9,2-3.5,3.9-4.7s4-1.8,6.3-1.8c0.4,0,1,0,1.7,0
						c0.7,0,1.2,0,1.5,0.1v6.1c-0.2-0.1-0.7-0.1-1.4-0.2c-0.7-0.1-1.5-0.2-2.3-0.2c-1.9,0-3.6,0.4-5.1,1.2c-1.5,0.8-2.7,1.9-3.5,3.3
						c-0.9,1.4-1.3,3-1.3,4.7v24.7H-8315.4z"/>
					<path class="st4" d="M-8272.8,3833.3c-3.5,0-6.6-0.8-9.3-2.5c-2.7-1.7-4.7-4-6.2-7.1c-1.5-3-2.2-6.6-2.2-10.6
						c0-4.1,0.7-7.6,2.2-10.7c1.5-3,3.6-5.4,6.2-7.1c2.7-1.7,5.7-2.5,9.3-2.5s6.6,0.8,9.3,2.5c2.7,1.7,4.7,4,6.2,7.1
						c1.5,3,2.2,6.6,2.2,10.7c0,4-0.7,7.6-2.2,10.6c-1.5,3-3.6,5.4-6.2,7.1C-8266.2,3832.5-8269.3,3833.3-8272.8,3833.3z
						 M-8272.8,3827.9c2.7,0,4.9-0.7,6.6-2.1c1.7-1.4,3-3.2,3.8-5.4c0.8-2.2,1.2-4.7,1.2-7.3c0-2.6-0.4-5-1.2-7.3
						c-0.8-2.3-2.1-4.1-3.8-5.5c-1.7-1.4-3.9-2.1-6.6-2.1s-4.9,0.7-6.6,2.1c-1.7,1.4-3,3.2-3.8,5.5c-0.8,2.3-1.2,4.7-1.2,7.3
						c0,2.6,0.4,5,1.2,7.3c0.8,2.2,2.1,4,3.8,5.4C-8277.7,3827.3-8275.5,3827.9-8272.8,3827.9z"/>
					<path class="st4" d="M-8231.2,3833.3c-3.3,0-6.1-0.8-8.6-2.5c-2.5-1.7-4.4-4-5.9-7s-2.1-6.6-2.1-10.8c0-4.1,0.7-7.7,2.1-10.7
						c1.4-3,3.4-5.4,5.9-7c2.5-1.6,5.4-2.5,8.7-2.5c2.5,0,4.6,0.4,6,1.3s2.6,1.8,3.4,2.9s1.4,1.9,1.8,2.6h0.5v-19.2h6v52.1h-5.8v-6
						h-0.7c-0.4,0.7-1.1,1.6-1.9,2.7c-0.8,1.1-2,2-3.5,2.9C-8226.7,3832.9-8228.7,3833.3-8231.2,3833.3z M-8230.4,3827.9
						c2.4,0,4.4-0.6,6.1-1.9c1.7-1.3,2.9-3,3.8-5.3c0.9-2.2,1.3-4.8,1.3-7.8c0-2.9-0.4-5.5-1.3-7.7s-2.1-3.9-3.8-5.1
						c-1.7-1.2-3.7-1.8-6.2-1.8c-2.5,0-4.7,0.6-6.4,1.9c-1.7,1.3-3,3.1-3.8,5.3s-1.3,4.7-1.3,7.4c0,2.8,0.4,5.3,1.3,7.6
						s2.1,4.1,3.8,5.4S-8232.9,3827.9-8230.4,3827.9z"/>
					<path class="st4" d="M-8176.8,3816.5v-23.1h6v39.1h-6v-6.6h-0.4c-0.9,2-2.3,3.7-4.3,5.1c-1.9,1.4-4.4,2.1-7.3,2.1
						c-2.4,0-4.6-0.5-6.5-1.6c-1.9-1.1-3.4-2.7-4.5-4.9c-1.1-2.2-1.6-4.9-1.6-8.3v-24.8h6v24.4c0,2.9,0.8,5.1,2.4,6.8
						c1.6,1.7,3.7,2.5,6.1,2.5c1.5,0,3-0.4,4.6-1.1c1.6-0.8,2.9-1.9,3.9-3.5C-8177.3,3821-8176.8,3819-8176.8,3816.5z"/>
					<path class="st4" d="M-8143.9,3833.3c-3.7,0-6.8-0.9-9.5-2.6s-4.7-4.1-6.1-7.2c-1.4-3-2.1-6.5-2.1-10.4c0-4,0.7-7.5,2.2-10.5
						c1.5-3,3.5-5.4,6.2-7.2c2.6-1.7,5.7-2.6,9.3-2.6c2.7,0,5.2,0.5,7.4,1.5c2.2,1,4,2.4,5.4,4.3c1.4,1.8,2.3,4,2.6,6.4h-6
						c-0.5-1.8-1.5-3.4-3-4.7c-1.6-1.4-3.7-2.1-6.3-2.1c-2.3,0-4.4,0.6-6.1,1.8c-1.8,1.2-3.1,2.9-4.1,5.1c-1,2.2-1.5,4.8-1.5,7.7
						c0,3,0.5,5.7,1.4,7.9c1,2.2,2.3,4,4.1,5.2c1.8,1.2,3.8,1.9,6.2,1.9c1.6,0,3-0.3,4.3-0.8c1.3-0.5,2.4-1.3,3.2-2.3
						c0.9-1,1.5-2.2,1.9-3.7h6c-0.3,2.3-1.2,4.4-2.5,6.2c-1.3,1.8-3.1,3.3-5.3,4.4C-8138.5,3832.8-8141,3833.3-8143.9,3833.3z"/>
					<path class="st4" d="M-8103.9,3833.3c-3.7,0-6.8-0.9-9.5-2.6s-4.7-4.1-6.1-7.2c-1.4-3-2.1-6.5-2.1-10.4c0-4,0.7-7.5,2.2-10.5
						c1.5-3,3.5-5.4,6.2-7.2c2.6-1.7,5.7-2.6,9.3-2.6c2.7,0,5.2,0.5,7.4,1.5c2.2,1,4,2.4,5.4,4.3c1.4,1.8,2.3,4,2.6,6.4h-6
						c-0.5-1.8-1.5-3.4-3-4.7c-1.6-1.4-3.7-2.1-6.3-2.1c-2.3,0-4.4,0.6-6.1,1.8c-1.8,1.2-3.1,2.9-4.1,5.1c-1,2.2-1.5,4.8-1.5,7.7
						c0,3,0.5,5.7,1.4,7.9c1,2.2,2.3,4,4.1,5.2c1.8,1.2,3.8,1.9,6.2,1.9c1.6,0,3-0.3,4.3-0.8c1.3-0.5,2.4-1.3,3.2-2.3
						c0.9-1,1.5-2.2,1.9-3.7h6c-0.3,2.3-1.2,4.4-2.5,6.2c-1.3,1.8-3.1,3.3-5.3,4.4C-8098.5,3832.8-8101,3833.3-8103.9,3833.3z"/>
					<path class="st4" d="M-8076.7,3786.9c-1.2,0-2.2-0.4-3-1.2c-0.8-0.8-1.3-1.8-1.3-2.9c0-1.1,0.4-2.1,1.3-2.9
						c0.8-0.8,1.8-1.2,3-1.2c1.2,0,2.2,0.4,3,1.2s1.3,1.8,1.3,2.9c0,1.1-0.4,2.1-1.3,2.9
						C-8074.5,3786.5-8075.5,3786.9-8076.7,3786.9z M-8079.7,3832.5v-39.1h6v39.1H-8079.7z"/>
					<path class="st4" d="M-8046.8,3833.3c-3.5,0-6.6-0.8-9.3-2.5c-2.7-1.7-4.7-4-6.2-7.1c-1.5-3-2.2-6.6-2.2-10.6
						c0-4.1,0.7-7.6,2.2-10.7c1.5-3,3.6-5.4,6.2-7.1c2.7-1.7,5.7-2.5,9.3-2.5s6.6,0.8,9.3,2.5c2.7,1.7,4.7,4,6.2,7.1
						c1.5,3,2.2,6.6,2.2,10.7c0,4-0.7,7.6-2.2,10.6c-1.5,3-3.6,5.4-6.2,7.1C-8040.2,3832.5-8043.3,3833.3-8046.8,3833.3z
						 M-8046.8,3827.9c2.7,0,4.9-0.7,6.6-2.1c1.7-1.4,3-3.2,3.8-5.4c0.8-2.2,1.2-4.7,1.2-7.3c0-2.6-0.4-5-1.2-7.3
						c-0.8-2.3-2.1-4.1-3.8-5.5s-3.9-2.1-6.6-2.1s-4.9,0.7-6.6,2.1c-1.7,1.4-3,3.2-3.8,5.5c-0.8,2.3-1.2,4.7-1.2,7.3
						c0,2.6,0.4,5,1.2,7.3c0.8,2.2,2.1,4,3.8,5.4C-8051.7,3827.3-8049.5,3827.9-8046.8,3827.9z M-8049.6,3788.1l6.2-11.8h7
						l-7.9,11.8H-8049.6z"/>
					<path class="st4" d="M-8014,3809v23.5h-6v-39.1h5.8v6.1h0.5c0.9-2,2.3-3.6,4.2-4.8c1.9-1.2,4.3-1.8,7.2-1.8c2.6,0,5,0.5,7,1.6
						s3.5,2.7,4.6,4.9c1.1,2.2,1.7,4.9,1.7,8.3v24.8h-6v-24.4c0-3.1-0.8-5.5-2.4-7.2c-1.6-1.7-3.8-2.6-6.6-2.6
						c-1.9,0-3.6,0.4-5.1,1.2c-1.5,0.8-2.7,2-3.6,3.6S-8014,3806.7-8014,3809z"/>
					<path class="st4" d="M-7946.3,3833.4c-2.5,0-4.7-0.5-6.7-1.4c-2-0.9-3.6-2.3-4.8-4.1c-1.2-1.8-1.8-4-1.8-6.5
						c0-2.2,0.4-4.1,1.3-5.5c0.9-1.4,2.1-2.5,3.5-3.3s3.1-1.4,4.9-1.8c1.8-0.4,3.6-0.7,5.4-1c2.4-0.3,4.3-0.5,5.8-0.7
						c1.5-0.2,2.6-0.4,3.3-0.8c0.7-0.4,1-1.1,1-2v-0.2c0-2.5-0.7-4.5-2-5.9c-1.4-1.4-3.4-2.1-6.2-2.1c-2.9,0-5.1,0.6-6.7,1.9
						c-1.6,1.3-2.8,2.6-3.4,4l-5.7-2c1-2.4,2.4-4.2,4.1-5.6c1.7-1.3,3.6-2.3,5.6-2.8c2-0.5,4-0.8,6-0.8c1.3,0,2.7,0.1,4.3,0.4
						c1.6,0.3,3.2,0.9,4.8,1.8c1.5,0.9,2.8,2.3,3.8,4.1c1,1.9,1.5,4.3,1.5,7.4v25.8h-6v-5.3h-0.3c-0.4,0.8-1.1,1.8-2,2.7
						c-1,1-2.2,1.8-3.8,2.5S-7944.1,3833.4-7946.3,3833.4z M-7945.4,3828c2.4,0,4.4-0.5,6-1.4c1.6-0.9,2.9-2.1,3.7-3.6
						s1.3-3,1.3-4.7v-5.5c-0.3,0.3-0.8,0.6-1.7,0.8c-0.9,0.2-1.8,0.5-3,0.6c-1.1,0.2-2.2,0.3-3.2,0.5c-1,0.1-1.9,0.2-2.5,0.3
						c-1.6,0.2-3,0.5-4.4,1c-1.3,0.4-2.4,1.1-3.3,2c-0.8,0.9-1.2,2.1-1.2,3.6c0,2.1,0.8,3.7,2.3,4.7
						C-7949.8,3827.5-7947.8,3828-7945.4,3828z"/>
					<path class="st4" d="M-7911.4,3780.4v52.1h-6v-52.1H-7911.4z"/>
					<path class="st4" d="M-7880.2,3832.5v-39.1h5.8v6.1h0.5c0.8-2.1,2.1-3.7,3.9-4.9c1.8-1.2,4-1.7,6.5-1.7c2.6,0,4.7,0.6,6.5,1.7
						c1.7,1.2,3.1,2.8,4,4.9h0.4c1-2,2.5-3.6,4.5-4.8c2-1.2,4.4-1.8,7.2-1.8c3.5,0,6.4,1.1,8.6,3.3c2.2,2.2,3.3,5.6,3.3,10.2v26.2
						h-6v-26.2c0-2.9-0.8-4.9-2.4-6.2c-1.6-1.2-3.4-1.9-5.6-1.9c-2.7,0-4.9,0.8-6.4,2.5c-1.5,1.7-2.3,3.7-2.3,6.3v25.5h-6.1v-26.8
						c0-2.2-0.7-4-2.2-5.4c-1.4-1.4-3.3-2-5.6-2c-1.6,0-3,0.4-4.4,1.2c-1.3,0.8-2.4,2-3.3,3.4c-0.8,1.5-1.2,3.2-1.2,5.1v24.4
						H-7880.2z"/>
					<path class="st4" d="M-7793.3,3816.5v-23.1h6v39.1h-6v-6.6h-0.4c-0.9,2-2.3,3.7-4.3,5.1c-1.9,1.4-4.4,2.1-7.3,2.1
						c-2.4,0-4.6-0.5-6.5-1.6s-3.4-2.7-4.5-4.9c-1.1-2.2-1.6-4.9-1.6-8.3v-24.8h6v24.4c0,2.9,0.8,5.1,2.4,6.8
						c1.6,1.7,3.7,2.5,6.1,2.5c1.5,0,3-0.4,4.6-1.1c1.6-0.8,2.9-1.9,3.9-3.5C-7793.8,3821-7793.3,3819-7793.3,3816.5z"/>
					<path class="st4" d="M-7770.3,3809v23.5h-6v-39.1h5.8v6.1h0.5c0.9-2,2.3-3.6,4.2-4.8c1.9-1.2,4.3-1.8,7.2-1.8
						c2.6,0,5,0.5,7,1.6s3.5,2.7,4.6,4.9c1.1,2.2,1.7,4.9,1.7,8.3v24.8h-6v-24.4c0-3.1-0.8-5.5-2.4-7.2c-1.6-1.7-3.8-2.6-6.6-2.6
						c-1.9,0-3.6,0.4-5.1,1.2c-1.5,0.8-2.7,2-3.6,3.6S-7770.3,3806.7-7770.3,3809z"/>
					<path class="st4" d="M-7719.5,3833.3c-3.3,0-6.1-0.8-8.6-2.5c-2.5-1.7-4.4-4-5.9-7c-1.4-3-2.1-6.6-2.1-10.8
						c0-4.1,0.7-7.7,2.1-10.7c1.4-3,3.4-5.4,5.9-7c2.5-1.6,5.4-2.5,8.7-2.5c2.5,0,4.6,0.4,6,1.3c1.5,0.8,2.6,1.8,3.4,2.9
						s1.4,1.9,1.8,2.6h0.5v-19.2h6v52.1h-5.8v-6h-0.7c-0.4,0.7-1.1,1.6-1.9,2.7c-0.8,1.1-2,2-3.5,2.9
						C-7715,3832.9-7717,3833.3-7719.5,3833.3z M-7718.7,3827.9c2.4,0,4.4-0.6,6.1-1.9c1.7-1.3,2.9-3,3.8-5.3
						c0.9-2.2,1.3-4.8,1.3-7.8c0-2.9-0.4-5.5-1.3-7.7c-0.8-2.2-2.1-3.9-3.8-5.1c-1.7-1.2-3.7-1.8-6.2-1.8c-2.5,0-4.7,0.6-6.4,1.9
						c-1.7,1.3-3,3.1-3.8,5.3c-0.8,2.2-1.3,4.7-1.3,7.4c0,2.8,0.4,5.3,1.3,7.6c0.9,2.3,2.1,4.1,3.8,5.4
						C-7723.3,3827.3-7721.2,3827.9-7718.7,3827.9z"/>
					<path class="st4" d="M-7673.9,3833.3c-3.5,0-6.6-0.8-9.3-2.5c-2.7-1.7-4.7-4-6.2-7.1c-1.5-3-2.2-6.6-2.2-10.6
						c0-4.1,0.7-7.6,2.2-10.7c1.5-3,3.6-5.4,6.2-7.1c2.7-1.7,5.7-2.5,9.3-2.5s6.6,0.8,9.3,2.5c2.7,1.7,4.7,4,6.2,7.1
						c1.5,3,2.2,6.6,2.2,10.7c0,4-0.7,7.6-2.2,10.6c-1.5,3-3.6,5.4-6.2,7.1C-7667.3,3832.5-7670.4,3833.3-7673.9,3833.3z
						 M-7673.9,3827.9c2.7,0,4.9-0.7,6.6-2.1c1.7-1.4,3-3.2,3.8-5.4c0.8-2.2,1.2-4.7,1.2-7.3c0-2.6-0.4-5-1.2-7.3
						c-0.8-2.3-2.1-4.1-3.8-5.5s-3.9-2.1-6.6-2.1s-4.9,0.7-6.6,2.1c-1.7,1.4-3,3.2-3.8,5.5c-0.8,2.3-1.2,4.7-1.2,7.3
						c0,2.6,0.4,5,1.2,7.3c0.8,2.2,2.1,4,3.8,5.4C-7678.8,3827.3-7676.6,3827.9-7673.9,3827.9z"/>
					<path class="st4" d="M-7612.1,3833.3c-3.3,0-6.1-0.8-8.6-2.5c-2.5-1.7-4.4-4-5.9-7c-1.4-3-2.1-6.6-2.1-10.8
						c0-4.1,0.7-7.7,2.1-10.7c1.4-3,3.4-5.4,5.9-7c2.5-1.6,5.4-2.5,8.7-2.5c2.5,0,4.6,0.4,6,1.3c1.5,0.8,2.6,1.8,3.4,2.9
						s1.4,1.9,1.8,2.6h0.5v-19.2h6v52.1h-5.8v-6h-0.7c-0.4,0.7-1.1,1.6-1.9,2.7c-0.8,1.1-2,2-3.5,2.9
						C-7607.6,3832.9-7609.6,3833.3-7612.1,3833.3z M-7611.3,3827.9c2.4,0,4.4-0.6,6.1-1.9c1.7-1.3,2.9-3,3.8-5.3
						c0.9-2.2,1.3-4.8,1.3-7.8c0-2.9-0.4-5.5-1.3-7.7c-0.8-2.2-2.1-3.9-3.8-5.1c-1.7-1.2-3.7-1.8-6.2-1.8c-2.5,0-4.7,0.6-6.4,1.9
						c-1.7,1.3-3,3.1-3.8,5.3c-0.8,2.2-1.3,4.7-1.3,7.4c0,2.8,0.4,5.3,1.3,7.6c0.9,2.3,2.1,4.1,3.8,5.4
						C-7615.9,3827.3-7613.8,3827.9-7611.3,3827.9z"/>
					<path class="st4" d="M-7566,3833.3c-3.8,0-7-0.8-9.7-2.5c-2.7-1.7-4.8-4-6.3-7s-2.2-6.5-2.2-10.5s0.7-7.5,2.2-10.6
						c1.5-3.1,3.5-5.5,6.2-7.2c2.6-1.7,5.7-2.6,9.3-2.6c2,0,4,0.3,6,1c2,0.7,3.8,1.8,5.4,3.3c1.6,1.5,2.9,3.5,3.9,6
						c1,2.5,1.5,5.6,1.5,9.2v2.5h-30.1v-5.2h24c0-2.2-0.4-4.2-1.3-5.9c-0.9-1.7-2.1-3.1-3.7-4.1c-1.6-1-3.5-1.5-5.7-1.5
						c-2.4,0-4.5,0.6-6.2,1.8s-3.1,2.7-4,4.6s-1.4,3.9-1.4,6.1v3.5c0,3,0.5,5.5,1.5,7.5c1,2,2.5,3.6,4.3,4.7s4,1.6,6.4,1.6
						c1.6,0,3-0.2,4.3-0.7c1.3-0.4,2.4-1.1,3.3-2s1.7-2,2.2-3.4l5.8,1.6c-0.6,2-1.6,3.7-3.1,5.2c-1.4,1.5-3.2,2.6-5.3,3.5
						C-7560.9,3832.9-7563.3,3833.3-7566,3833.3z"/>
					<path class="st4" d="M-7534.6,3780.4v52.1h-6v-52.1H-7534.6z"/>
					<path class="st4" d="M-8558.2,3889.5v-5.6h39.1v5.6h-16.4v46.5h-6.3v-46.5H-8558.2z"/>
					<path class="st4" d="M-8493.7,3936.9c-3.8,0-7-0.8-9.7-2.5c-2.7-1.7-4.8-4-6.3-7s-2.2-6.5-2.2-10.5s0.7-7.5,2.2-10.6
						c1.5-3.1,3.5-5.5,6.2-7.2c2.6-1.7,5.7-2.6,9.3-2.6c2,0,4,0.3,6,1c2,0.7,3.8,1.8,5.4,3.3c1.6,1.5,2.9,3.5,3.9,6
						c1,2.5,1.5,5.6,1.5,9.2v2.5h-30.1v-5.2h24c0-2.2-0.4-4.2-1.3-5.9s-2.1-3.1-3.7-4.1c-1.6-1-3.5-1.5-5.7-1.5
						c-2.4,0-4.5,0.6-6.2,1.8c-1.7,1.2-3.1,2.7-4,4.6s-1.4,3.9-1.4,6.1v3.5c0,3,0.5,5.5,1.5,7.5c1,2,2.5,3.6,4.3,4.7s4,1.6,6.4,1.6
						c1.6,0,3-0.2,4.3-0.7c1.3-0.4,2.4-1.1,3.3-2s1.7-2,2.2-3.4l5.8,1.6c-0.6,2-1.6,3.7-3.1,5.2c-1.4,1.5-3.2,2.6-5.3,3.5
						C-8488.7,3936.5-8491.1,3936.9-8493.7,3936.9z"/>
					<path class="st4" d="M-8440.7,3905.7l-5.4,1.5c-0.3-0.9-0.8-1.8-1.5-2.6c-0.7-0.9-1.5-1.6-2.7-2.1c-1.1-0.6-2.6-0.8-4.3-0.8
						c-2.4,0-4.4,0.5-6,1.6c-1.6,1.1-2.4,2.5-2.4,4.2c0,1.5,0.5,2.7,1.6,3.5c1.1,0.9,2.8,1.6,5.1,2.2l5.8,1.4
						c3.5,0.8,6.1,2.1,7.8,3.9c1.7,1.7,2.6,4,2.6,6.7c0,2.2-0.6,4.2-1.9,6c-1.3,1.8-3.1,3.2-5.4,4.2s-5,1.5-8,1.5
						c-4,0-7.3-0.9-9.9-2.6s-4.3-4.3-5-7.6l5.7-1.4c0.5,2.1,1.6,3.7,3.1,4.7c1.5,1.1,3.5,1.6,6,1.6c2.8,0,5-0.6,6.7-1.8
						c1.7-1.2,2.5-2.6,2.5-4.3c0-1.4-0.5-2.5-1.4-3.4c-1-0.9-2.4-1.6-4.4-2.1l-6.5-1.5c-3.6-0.8-6.2-2.2-7.9-4
						c-1.7-1.8-2.5-4-2.5-6.7c0-2.2,0.6-4.2,1.9-5.9c1.2-1.7,3-3,5.1-4c2.2-1,4.6-1.5,7.4-1.5c3.9,0,6.9,0.8,9.1,2.5
						C-8443.2,3900.7-8441.6,3903-8440.7,3905.7z"/>
					<path class="st4" d="M-8413.9,3897v5.1h-20.3v-5.1H-8413.9z M-8428.2,3887.6h6v37.3c0,1.7,0.2,3,0.8,3.8
						c0.5,0.8,1.1,1.4,1.9,1.7c0.8,0.3,1.6,0.4,2.5,0.4c0.7,0,1.2,0,1.6-0.1s0.8-0.1,1-0.2l1.2,5.4c-0.4,0.2-1,0.3-1.7,0.5
						c-0.7,0.2-1.7,0.2-2.8,0.2c-1.7,0-3.4-0.4-5-1.1s-3-1.8-4-3.3c-1.1-1.5-1.6-3.4-1.6-5.7V3887.6z"/>
					<path class="st4" d="M-8401.8,3890.5c-1.2,0-2.2-0.4-3-1.2c-0.8-0.8-1.3-1.8-1.3-2.9c0-1.1,0.4-2.1,1.3-2.9
						c0.8-0.8,1.8-1.2,3-1.2c1.2,0,2.2,0.4,3,1.2s1.3,1.8,1.3,2.9c0,1.1-0.4,2.1-1.3,2.9
						C-8399.6,3890.1-8400.6,3890.5-8401.8,3890.5z M-8404.8,3936.1V3897h6v39.1H-8404.8z"/>
					<path class="st4" d="M-8381.8,3912.6v23.5h-6V3897h5.8v6.1h0.5c0.9-2,2.3-3.6,4.2-4.8c1.9-1.2,4.3-1.8,7.2-1.8
						c2.6,0,5,0.5,7,1.6c2,1.1,3.5,2.7,4.6,4.9c1.1,2.2,1.7,4.9,1.7,8.3v24.8h-6v-24.4c0-3.1-0.8-5.5-2.4-7.2
						c-1.6-1.7-3.8-2.6-6.6-2.6c-1.9,0-3.6,0.4-5.1,1.2s-2.7,2-3.6,3.6C-8381.4,3908.4-8381.8,3910.3-8381.8,3912.6z"/>
					<path class="st4" d="M-8330.1,3951.6c-2.9,0-5.4-0.4-7.5-1.1s-3.8-1.7-5.2-2.9c-1.4-1.2-2.5-2.5-3.3-3.8l4.8-3.4
						c0.5,0.7,1.2,1.5,2.1,2.5c0.8,0.9,2,1.7,3.4,2.4s3.4,1,5.7,1c3.2,0,5.8-0.8,7.8-2.3s3.1-3.9,3.1-7.2v-7.9h-0.5
						c-0.4,0.7-1.1,1.6-1.9,2.6s-2,2-3.5,2.8c-1.5,0.8-3.5,1.2-6.1,1.2c-3.2,0-6-0.7-8.5-2.2c-2.5-1.5-4.5-3.7-5.9-6.5
						s-2.2-6.3-2.2-10.4c0-4,0.7-7.5,2.1-10.5c1.4-3,3.4-5.3,5.9-6.9c2.5-1.6,5.4-2.5,8.7-2.5c2.5,0,4.6,0.4,6.1,1.3
						s2.7,1.8,3.5,2.9c0.8,1.1,1.4,1.9,1.9,2.6h0.6v-6.2h5.8v40.2c0,3.4-0.8,6.1-2.3,8.2c-1.5,2.1-3.6,3.7-6.1,4.7
						C-8324.1,3951.1-8326.9,3951.6-8330.1,3951.6z M-8330.3,3930.1c2.4,0,4.4-0.6,6.1-1.7c1.7-1.1,2.9-2.7,3.8-4.8
						c0.9-2.1,1.3-4.5,1.3-7.4c0-2.8-0.4-5.3-1.3-7.5c-0.8-2.2-2.1-3.8-3.8-5.1c-1.7-1.2-3.7-1.8-6.2-1.8c-2.5,0-4.7,0.6-6.4,1.9
						c-1.7,1.3-3,3-3.8,5.2c-0.8,2.2-1.3,4.6-1.3,7.2c0,2.7,0.4,5.1,1.3,7.2c0.9,2.1,2.1,3.7,3.8,4.9
						C-8334.9,3929.5-8332.8,3930.1-8330.3,3930.1z"/>
					<path class="st4" d="M-8266.1,3936.9c-3.5,0-6.6-0.8-9.3-2.5c-2.7-1.7-4.7-4-6.2-7.1c-1.5-3-2.2-6.6-2.2-10.6
						c0-4.1,0.7-7.6,2.2-10.7c1.5-3,3.6-5.4,6.2-7.1c2.7-1.7,5.7-2.5,9.3-2.5c3.5,0,6.6,0.8,9.3,2.5c2.7,1.7,4.7,4,6.2,7.1
						c1.5,3,2.2,6.6,2.2,10.7c0,4-0.7,7.6-2.2,10.6c-1.5,3-3.6,5.4-6.2,7.1C-8259.5,3936.1-8262.6,3936.9-8266.1,3936.9z
						 M-8266.1,3931.5c2.7,0,4.9-0.7,6.6-2.1c1.7-1.4,3-3.2,3.8-5.4c0.8-2.2,1.2-4.7,1.2-7.3c0-2.6-0.4-5-1.2-7.3
						c-0.8-2.3-2.1-4.1-3.8-5.5s-3.9-2.1-6.6-2.1s-4.9,0.7-6.6,2.1c-1.7,1.4-3,3.2-3.8,5.5c-0.8,2.3-1.2,4.7-1.2,7.3
						c0,2.6,0.4,5,1.2,7.3c0.8,2.2,2.1,4,3.8,5.4C-8271,3930.8-8268.8,3931.5-8266.1,3931.5z"/>
					<path class="st4" d="M-8239.2,3936.1V3897h5.8v5.9h0.4c0.7-1.9,2-3.5,3.9-4.7s4-1.8,6.3-1.8c0.4,0,1,0,1.7,0
						c0.7,0,1.2,0,1.5,0.1v6.1c-0.2-0.1-0.7-0.1-1.4-0.2s-1.5-0.2-2.3-0.2c-1.9,0-3.6,0.4-5.1,1.2c-1.5,0.8-2.7,1.9-3.5,3.3
						c-0.9,1.4-1.3,3-1.3,4.7v24.7H-8239.2z"/>
					<path class="st4" d="M-8209.5,3890.5c-1.2,0-2.2-0.4-3-1.2c-0.8-0.8-1.3-1.8-1.3-2.9c0-1.1,0.4-2.1,1.3-2.9s1.8-1.2,3-1.2
						s2.2,0.4,3,1.2c0.8,0.8,1.3,1.8,1.3,2.9c0,1.1-0.4,2.1-1.3,2.9C-8207.3,3890.1-8208.3,3890.5-8209.5,3890.5z M-8212.5,3936.1
						V3897h6v39.1H-8212.5z"/>
					<path class="st4" d="M-8179.1,3936.9c-3.8,0-7-0.8-9.7-2.5c-2.7-1.7-4.8-4-6.3-7c-1.5-3-2.2-6.5-2.2-10.5s0.7-7.5,2.2-10.6
						c1.5-3.1,3.5-5.5,6.2-7.2c2.6-1.7,5.7-2.6,9.3-2.6c2,0,4,0.3,6,1c2,0.7,3.8,1.8,5.4,3.3c1.6,1.5,2.9,3.5,3.9,6
						c1,2.5,1.5,5.6,1.5,9.2v2.5h-30.1v-5.2h24c0-2.2-0.4-4.2-1.3-5.9c-0.9-1.7-2.1-3.1-3.7-4.1c-1.6-1-3.5-1.5-5.7-1.5
						c-2.4,0-4.5,0.6-6.2,1.8s-3.1,2.7-4,4.6s-1.4,3.9-1.4,6.1v3.5c0,3,0.5,5.5,1.5,7.5c1,2,2.5,3.6,4.3,4.7s4,1.6,6.4,1.6
						c1.6,0,3-0.2,4.3-0.7c1.3-0.4,2.4-1.1,3.3-2s1.7-2,2.2-3.4l5.8,1.6c-0.6,2-1.6,3.7-3.1,5.2c-1.4,1.5-3.2,2.6-5.3,3.5
						C-8174.1,3936.5-8176.5,3936.9-8179.1,3936.9z"/>
					<path class="st4" d="M-8147.8,3912.6v23.5h-6V3897h5.8v6.1h0.5c0.9-2,2.3-3.6,4.2-4.8c1.9-1.2,4.3-1.8,7.2-1.8
						c2.6,0,5,0.5,7,1.6s3.5,2.7,4.6,4.9c1.1,2.2,1.7,4.9,1.7,8.3v24.8h-6v-24.4c0-3.1-0.8-5.5-2.4-7.2c-1.6-1.7-3.8-2.6-6.6-2.6
						c-1.9,0-3.6,0.4-5.1,1.2c-1.5,0.8-2.7,2-3.6,3.6S-8147.8,3910.3-8147.8,3912.6z"/>
					<path class="st4" d="M-8094.8,3897v5.1h-20.3v-5.1H-8094.8z M-8109.2,3887.6h6v37.3c0,1.7,0.3,3,0.8,3.8
						c0.5,0.8,1.1,1.4,1.9,1.7c0.8,0.3,1.6,0.4,2.5,0.4c0.7,0,1.2,0,1.6-0.1s0.8-0.1,1-0.2l1.2,5.4c-0.4,0.2-1,0.3-1.7,0.5
						c-0.7,0.2-1.7,0.2-2.8,0.2c-1.7,0-3.4-0.4-5-1.1c-1.6-0.7-3-1.8-4-3.3c-1.1-1.5-1.6-3.4-1.6-5.7V3887.6z"/>
					<path class="st4" d="M-8074.2,3937c-2.5,0-4.7-0.5-6.7-1.4c-2-0.9-3.6-2.3-4.8-4.1c-1.2-1.8-1.8-4-1.8-6.5
						c0-2.2,0.4-4.1,1.3-5.5c0.9-1.4,2.1-2.5,3.5-3.3s3.1-1.4,4.9-1.8c1.8-0.4,3.6-0.7,5.4-1c2.4-0.3,4.3-0.5,5.8-0.7
						c1.5-0.2,2.6-0.4,3.3-0.8c0.7-0.4,1-1.1,1-2v-0.2c0-2.5-0.7-4.5-2-5.9c-1.4-1.4-3.4-2.1-6.2-2.1c-2.9,0-5.1,0.6-6.7,1.9
						c-1.6,1.3-2.8,2.6-3.4,4l-5.7-2c1-2.4,2.4-4.2,4.1-5.6c1.7-1.3,3.6-2.3,5.6-2.8c2-0.5,4-0.8,6-0.8c1.3,0,2.7,0.1,4.3,0.4
						c1.6,0.3,3.2,0.9,4.8,1.8c1.5,0.9,2.8,2.3,3.8,4.1c1,1.9,1.5,4.3,1.5,7.4v25.8h-6v-5.3h-0.3c-0.4,0.8-1.1,1.8-2,2.7
						c-1,1-2.2,1.8-3.8,2.5S-8072,3937-8074.2,3937z M-8073.3,3931.6c2.4,0,4.4-0.5,6-1.4c1.6-0.9,2.9-2.1,3.7-3.6s1.3-3,1.3-4.7
						v-5.5c-0.3,0.3-0.8,0.6-1.7,0.8c-0.9,0.2-1.8,0.5-3,0.6c-1.1,0.2-2.2,0.3-3.2,0.5c-1,0.1-1.9,0.2-2.5,0.3c-1.6,0.2-3,0.5-4.4,1
						c-1.3,0.4-2.4,1.1-3.3,2c-0.8,0.9-1.2,2.1-1.2,3.6c0,2.1,0.8,3.7,2.3,4.7C-8077.7,3931.1-8075.7,3931.6-8073.3,3931.6z"/>
					<path class="st4" d="M-8030.6,3936.9c-3.3,0-6.1-0.8-8.6-2.5c-2.5-1.7-4.4-4-5.9-7c-1.4-3-2.1-6.6-2.1-10.8
						c0-4.1,0.7-7.7,2.1-10.7c1.4-3,3.4-5.4,5.9-7c2.5-1.6,5.4-2.5,8.7-2.5c2.5,0,4.6,0.4,6,1.3c1.5,0.8,2.6,1.8,3.4,2.9
						s1.4,1.9,1.8,2.6h0.5v-19.2h6v52.1h-5.8v-6h-0.7c-0.4,0.7-1.1,1.6-1.9,2.7c-0.8,1.1-2,2-3.5,2.9
						C-8026,3936.5-8028,3936.9-8030.6,3936.9z M-8029.7,3931.5c2.4,0,4.4-0.6,6.1-1.9c1.7-1.3,2.9-3,3.8-5.3
						c0.9-2.2,1.3-4.8,1.3-7.8c0-2.9-0.4-5.5-1.3-7.7c-0.8-2.2-2.1-3.9-3.8-5.1c-1.7-1.2-3.7-1.8-6.2-1.8c-2.5,0-4.7,0.6-6.4,1.9
						c-1.7,1.3-3,3.1-3.8,5.3c-0.8,2.2-1.3,4.7-1.3,7.4c0,2.8,0.4,5.3,1.3,7.6c0.9,2.3,2.1,4.1,3.8,5.4
						C-8034.4,3930.8-8032.3,3931.5-8029.7,3931.5z"/>
					<path class="st4" d="M-7984.9,3936.9c-3.5,0-6.6-0.8-9.3-2.5c-2.7-1.7-4.7-4-6.2-7.1c-1.5-3-2.2-6.6-2.2-10.6
						c0-4.1,0.7-7.6,2.2-10.7c1.5-3,3.6-5.4,6.2-7.1c2.7-1.7,5.7-2.5,9.3-2.5s6.6,0.8,9.3,2.5c2.7,1.7,4.7,4,6.2,7.1
						c1.5,3,2.2,6.6,2.2,10.7c0,4-0.7,7.6-2.2,10.6c-1.5,3-3.6,5.4-6.2,7.1C-7978.3,3936.1-7981.4,3936.9-7984.9,3936.9z
						 M-7984.9,3931.5c2.7,0,4.9-0.7,6.6-2.1c1.7-1.4,3-3.2,3.8-5.4c0.8-2.2,1.2-4.7,1.2-7.3c0-2.6-0.4-5-1.2-7.3
						c-0.8-2.3-2.1-4.1-3.8-5.5s-3.9-2.1-6.6-2.1s-4.9,0.7-6.6,2.1c-1.7,1.4-3,3.2-3.8,5.5c-0.8,2.3-1.2,4.7-1.2,7.3
						c0,2.6,0.4,5,1.2,7.3c0.8,2.2,2.1,4,3.8,5.4C-7989.8,3930.8-7987.6,3931.5-7984.9,3931.5z"/>
					<path class="st4" d="M-7926.4,3937c-2.5,0-4.7-0.5-6.7-1.4c-2-0.9-3.6-2.3-4.8-4.1c-1.2-1.8-1.8-4-1.8-6.5
						c0-2.2,0.4-4.1,1.3-5.5c0.9-1.4,2.1-2.5,3.5-3.3s3.1-1.4,4.9-1.8c1.8-0.4,3.6-0.7,5.4-1c2.4-0.3,4.3-0.5,5.8-0.7
						c1.5-0.2,2.6-0.4,3.3-0.8c0.7-0.4,1-1.1,1-2v-0.2c0-2.5-0.7-4.5-2-5.9c-1.4-1.4-3.4-2.1-6.2-2.1c-2.9,0-5.1,0.6-6.7,1.9
						c-1.6,1.3-2.8,2.6-3.4,4l-5.7-2c1-2.4,2.4-4.2,4.1-5.6c1.7-1.3,3.6-2.3,5.6-2.8c2-0.5,4-0.8,6-0.8c1.3,0,2.7,0.1,4.3,0.4
						c1.6,0.3,3.2,0.9,4.8,1.8c1.5,0.9,2.8,2.3,3.8,4.1c1,1.9,1.5,4.3,1.5,7.4v25.8h-6v-5.3h-0.3c-0.4,0.8-1.1,1.8-2,2.7
						c-1,1-2.2,1.8-3.8,2.5S-7924.1,3937-7926.4,3937z M-7925.5,3931.6c2.4,0,4.4-0.5,6-1.4c1.6-0.9,2.9-2.1,3.7-3.6s1.3-3,1.3-4.7
						v-5.5c-0.3,0.3-0.8,0.6-1.7,0.8c-0.9,0.2-1.8,0.5-3,0.6c-1.1,0.2-2.2,0.3-3.2,0.5c-1,0.1-1.9,0.2-2.5,0.3c-1.6,0.2-3,0.5-4.4,1
						c-1.3,0.4-2.4,1.1-3.3,2c-0.8,0.9-1.2,2.1-1.2,3.6c0,2.1,0.8,3.7,2.3,4.7C-7929.8,3931.1-7927.9,3931.6-7925.5,3931.6z"/>
					<path class="st4" d="M-7891.4,3883.9v52.1h-6v-52.1H-7891.4z"/>
					<path class="st4" d="M-7859.5,3936.1v-52.1h31.3v5.6h-25v17.6h22.6v5.6h-22.6v23.3H-7859.5z"/>
					<path class="st4" d="M-7818.2,3936.1V3897h5.8v5.9h0.4c0.7-1.9,2-3.5,3.9-4.7s4-1.8,6.3-1.8c0.4,0,1,0,1.7,0
						c0.7,0,1.2,0,1.5,0.1v6.1c-0.2-0.1-0.7-0.1-1.4-0.2c-0.7-0.1-1.5-0.2-2.3-0.2c-1.9,0-3.6,0.4-5.1,1.2c-1.5,0.8-2.7,1.9-3.5,3.3
						c-0.9,1.4-1.3,3-1.3,4.7v24.7H-7818.2z"/>
					<path class="st4" d="M-7775.7,3936.9c-3.5,0-6.6-0.8-9.3-2.5c-2.7-1.7-4.7-4-6.2-7.1c-1.5-3-2.2-6.6-2.2-10.6
						c0-4.1,0.7-7.6,2.2-10.7c1.5-3,3.6-5.4,6.2-7.1c2.7-1.7,5.7-2.5,9.3-2.5s6.6,0.8,9.3,2.5c2.7,1.7,4.7,4,6.2,7.1
						c1.5,3,2.2,6.6,2.2,10.7c0,4-0.7,7.6-2.2,10.6c-1.5,3-3.6,5.4-6.2,7.1C-7769,3936.1-7772.1,3936.9-7775.7,3936.9z
						 M-7775.7,3931.5c2.7,0,4.9-0.7,6.6-2.1c1.7-1.4,3-3.2,3.8-5.4c0.8-2.2,1.2-4.7,1.2-7.3c0-2.6-0.4-5-1.2-7.3
						c-0.8-2.3-2.1-4.1-3.8-5.5s-3.9-2.1-6.6-2.1s-4.9,0.7-6.6,2.1c-1.7,1.4-3,3.2-3.8,5.5c-0.8,2.3-1.2,4.7-1.2,7.3
						c0,2.6,0.4,5,1.2,7.3c0.8,2.2,2.1,4,3.8,5.4C-7780.5,3930.8-7778.3,3931.5-7775.7,3931.5z"/>
					<path class="st4" d="M-7742.8,3912.6v23.5h-6V3897h5.8v6.1h0.5c0.9-2,2.3-3.6,4.2-4.8c1.9-1.2,4.3-1.8,7.2-1.8
						c2.6,0,5,0.5,7,1.6s3.5,2.7,4.6,4.9c1.1,2.2,1.7,4.9,1.7,8.3v24.8h-6v-24.4c0-3.1-0.8-5.5-2.4-7.2c-1.6-1.7-3.8-2.6-6.6-2.6
						c-1.9,0-3.6,0.4-5.1,1.2c-1.5,0.8-2.7,2-3.6,3.6S-7742.8,3910.3-7742.8,3912.6z"/>
					<path class="st4" d="M-7689.8,3897v5.1h-20.3v-5.1H-7689.8z M-7704.2,3887.6h6v37.3c0,1.7,0.3,3,0.8,3.8
						c0.5,0.8,1.1,1.4,1.9,1.7c0.8,0.3,1.6,0.4,2.5,0.4c0.7,0,1.2,0,1.6-0.1s0.8-0.1,1-0.2l1.2,5.4c-0.4,0.2-1,0.3-1.7,0.5
						c-0.7,0.2-1.7,0.2-2.8,0.2c-1.7,0-3.4-0.4-5-1.1c-1.6-0.7-3-1.8-4-3.3c-1.1-1.5-1.6-3.4-1.6-5.7V3887.6z"/>
					<path class="st4" d="M-7658.3,3910.9v5.6h-22.8v-5.6H-7658.3z"/>
					<path class="st4" d="M-7631.4,3936.9c-3.8,0-7-0.8-9.7-2.5c-2.7-1.7-4.8-4-6.3-7s-2.2-6.5-2.2-10.5s0.7-7.5,2.2-10.6
						c1.5-3.1,3.5-5.5,6.2-7.2c2.6-1.7,5.7-2.6,9.3-2.6c2,0,4,0.3,6,1c2,0.7,3.8,1.8,5.4,3.3c1.6,1.5,2.9,3.5,3.9,6
						c1,2.5,1.5,5.6,1.5,9.2v2.5h-30.1v-5.2h24c0-2.2-0.4-4.2-1.3-5.9c-0.9-1.7-2.1-3.1-3.7-4.1c-1.6-1-3.5-1.5-5.7-1.5
						c-2.4,0-4.5,0.6-6.2,1.8s-3.1,2.7-4,4.6s-1.4,3.9-1.4,6.1v3.5c0,3,0.5,5.5,1.5,7.5c1,2,2.5,3.6,4.3,4.7s4,1.6,6.4,1.6
						c1.6,0,3-0.2,4.3-0.7c1.3-0.4,2.4-1.1,3.3-2s1.7-2,2.2-3.4l5.8,1.6c-0.6,2-1.6,3.7-3.1,5.2c-1.4,1.5-3.2,2.6-5.3,3.5
						C-7626.3,3936.5-7628.7,3936.9-7631.4,3936.9z"/>
					<path class="st4" d="M-7600,3912.6v23.5h-6V3897h5.8v6.1h0.5c0.9-2,2.3-3.6,4.2-4.8c1.9-1.2,4.3-1.8,7.2-1.8c2.6,0,5,0.5,7,1.6
						s3.5,2.7,4.6,4.9c1.1,2.2,1.7,4.9,1.7,8.3v24.8h-6v-24.4c0-3.1-0.8-5.5-2.4-7.2c-1.6-1.7-3.8-2.6-6.6-2.6
						c-1.9,0-3.6,0.4-5.1,1.2c-1.5,0.8-2.7,2-3.6,3.6S-7600,3910.3-7600,3912.6z"/>
					<path class="st4" d="M-7549.3,3936.9c-3.3,0-6.1-0.8-8.6-2.5c-2.5-1.7-4.4-4-5.9-7c-1.4-3-2.1-6.6-2.1-10.8
						c0-4.1,0.7-7.7,2.1-10.7c1.4-3,3.4-5.4,5.9-7c2.5-1.6,5.4-2.5,8.7-2.5c2.5,0,4.6,0.4,6,1.3c1.5,0.8,2.6,1.8,3.4,2.9
						s1.4,1.9,1.8,2.6h0.5v-19.2h6v52.1h-5.8v-6h-0.7c-0.4,0.7-1.1,1.6-1.9,2.7c-0.8,1.1-2,2-3.5,2.9
						C-7544.8,3936.5-7546.8,3936.9-7549.3,3936.9z M-7548.5,3931.5c2.4,0,4.4-0.6,6.1-1.9c1.7-1.3,2.9-3,3.8-5.3
						c0.9-2.2,1.3-4.8,1.3-7.8c0-2.9-0.4-5.5-1.3-7.7c-0.8-2.2-2.1-3.9-3.8-5.1c-1.7-1.2-3.7-1.8-6.2-1.8c-2.5,0-4.7,0.6-6.4,1.9
						c-1.7,1.3-3,3.1-3.8,5.3c-0.8,2.2-1.3,4.7-1.3,7.4c0,2.8,0.4,5.3,1.3,7.6c0.9,2.3,2.1,4.1,3.8,5.4
						C-7553.1,3930.8-7551,3931.5-7548.5,3931.5z"/>
					<path class="st4" d="M-7515.2,3936.5c-1.3,0-2.3-0.4-3.2-1.3c-0.9-0.9-1.3-2-1.3-3.2c0-1.3,0.4-2.3,1.3-3.2
						c0.9-0.9,2-1.3,3.2-1.3c1.3,0,2.3,0.4,3.2,1.3c0.9,0.9,1.3,2,1.3,3.2c0,0.8-0.2,1.6-0.6,2.3c-0.4,0.7-1,1.3-1.7,1.7
						C-7513.5,3936.3-7514.3,3936.5-7515.2,3936.5z"/>
				</g>
			</g>
			<g>
				<g>
					<path class="st4" d="M-8547.6,4030.6v57.9h-7v-57.9H-8547.6z"/>
					<path class="st4" d="M-8521.7,4089.6c-2.8,0-5.3-0.5-7.5-1.6s-4-2.6-5.3-4.6c-1.3-2-2-4.4-2-7.2c0-2.5,0.5-4.5,1.5-6.1
						c1-1.6,2.3-2.8,3.9-3.7s3.5-1.6,5.4-2c2-0.4,4-0.8,6-1.1c2.6-0.3,4.8-0.6,6.4-0.8c1.7-0.2,2.9-0.5,3.6-0.9
						c0.8-0.4,1.1-1.2,1.1-2.3v-0.2c0-2.8-0.8-5-2.3-6.5c-1.5-1.5-3.8-2.3-6.9-2.3c-3.2,0-5.7,0.7-7.5,2.1s-3.1,2.9-3.8,4.5
						l-6.3-2.3c1.1-2.6,2.6-4.7,4.5-6.2s4-2.5,6.2-3.1c2.3-0.6,4.5-0.9,6.7-0.9c1.4,0,3,0.2,4.8,0.5s3.6,1,5.3,2
						c1.7,1,3.1,2.6,4.3,4.6s1.7,4.8,1.7,8.3v28.6h-6.7v-5.9h-0.3c-0.5,0.9-1.2,2-2.3,3c-1.1,1.1-2.5,2-4.2,2.7
						S-8519.2,4089.6-8521.7,4089.6z M-8520.7,4083.6c2.6,0,4.9-0.5,6.7-1.6c1.8-1,3.2-2.4,4.1-4s1.4-3.4,1.4-5.2v-6.1
						c-0.3,0.3-0.9,0.6-1.9,0.9c-1,0.3-2,0.5-3.3,0.7s-2.4,0.4-3.6,0.5c-1.2,0.1-2.1,0.3-2.8,0.4c-1.7,0.2-3.4,0.6-4.9,1.1
						c-1.5,0.5-2.7,1.2-3.6,2.2c-0.9,1-1.4,2.3-1.4,4c0,2.3,0.9,4.1,2.6,5.2C-8525.5,4083-8523.3,4083.6-8520.7,4083.6z"/>
					<path class="st4" d="M-8472,4105.8c-3.2,0-6-0.4-8.3-1.2c-2.3-0.8-4.2-1.9-5.8-3.2c-1.5-1.3-2.8-2.7-3.7-4.3l5.3-3.7
						c0.6,0.8,1.4,1.7,2.3,2.7c0.9,1,2.2,1.9,3.8,2.7c1.6,0.8,3.7,1.1,6.3,1.1c3.5,0,6.4-0.8,8.7-2.5c2.3-1.7,3.4-4.4,3.4-8v-8.8
						h-0.6c-0.5,0.8-1.2,1.8-2.1,2.9c-0.9,1.2-2.2,2.2-3.8,3.1c-1.7,0.9-3.9,1.3-6.7,1.3c-3.5,0-6.7-0.8-9.4-2.5
						c-2.8-1.7-5-4.1-6.6-7.2s-2.4-7-2.4-11.5c0-4.5,0.8-8.3,2.3-11.6c1.6-3.3,3.7-5.9,6.5-7.7c2.8-1.8,6-2.7,9.7-2.7
						c2.8,0,5.1,0.5,6.7,1.4c1.7,0.9,3,2,3.8,3.2c0.9,1.2,1.6,2.1,2.1,2.9h0.7v-6.9h6.5v44.7c0,3.7-0.8,6.8-2.5,9.1
						c-1.7,2.3-4,4.1-6.8,5.2C-8465.4,4105.2-8468.5,4105.8-8472,4105.8z M-8472.2,4081.9c2.7,0,4.9-0.6,6.8-1.8s3.3-3,4.2-5.3
						s1.4-5.1,1.4-8.3c0-3.1-0.5-5.9-1.4-8.3c-0.9-2.4-2.3-4.3-4.2-5.6c-1.8-1.4-4.1-2-6.8-2c-2.8,0-5.2,0.7-7.1,2.2
						c-1.9,1.4-3.3,3.4-4.2,5.8s-1.4,5.1-1.4,8c0,3,0.5,5.7,1.4,8c1,2.3,2.4,4.1,4.2,5.4C-8477.4,4081.2-8475,4081.9-8472.2,4081.9z
						"/>
					<path class="st4" d="M-8423.4,4089.5c-3.9,0-7.4-0.9-10.3-2.8c-3-1.9-5.3-4.5-6.9-7.8c-1.7-3.4-2.5-7.3-2.5-11.8
						c0-4.5,0.8-8.5,2.5-11.9c1.6-3.4,4-6,6.9-7.9c3-1.9,6.4-2.8,10.3-2.8c3.9,0,7.4,0.9,10.3,2.8s5.3,4.5,6.9,7.9s2.5,7.3,2.5,11.9
						c0,4.5-0.8,8.4-2.5,11.8c-1.7,3.4-4,6-6.9,7.8S-8419.4,4089.5-8423.4,4089.5z M-8423.4,4083.5c3,0,5.4-0.8,7.4-2.3
						c1.9-1.5,3.3-3.5,4.3-6c0.9-2.5,1.4-5.2,1.4-8.1s-0.5-5.6-1.4-8.1c-0.9-2.5-2.3-4.5-4.3-6.1c-1.9-1.5-4.4-2.3-7.4-2.3
						c-3,0-5.4,0.8-7.4,2.3c-1.9,1.5-3.3,3.6-4.3,6.1c-0.9,2.5-1.4,5.2-1.4,8.1s0.5,5.6,1.4,8.1c0.9,2.5,2.3,4.5,4.3,6
						C-8428.8,4082.7-8426.3,4083.5-8423.4,4083.5z"/>
					<path class="st4" d="M-8370.2,4088.6v-57.9h7v51.7h26.9v6.2H-8370.2z"/>
					<path class="st4" d="M-8313.5,4089.6c-2.8,0-5.3-0.5-7.5-1.6s-4-2.6-5.3-4.6c-1.3-2-2-4.4-2-7.2c0-2.5,0.5-4.5,1.5-6.1
						c1-1.6,2.3-2.8,3.9-3.7s3.5-1.6,5.4-2c2-0.4,4-0.8,6-1.1c2.6-0.3,4.8-0.6,6.4-0.8c1.7-0.2,2.9-0.5,3.6-0.9
						c0.8-0.4,1.1-1.2,1.1-2.3v-0.2c0-2.8-0.8-5-2.3-6.5c-1.5-1.5-3.8-2.3-6.9-2.3c-3.2,0-5.7,0.7-7.5,2.1s-3.1,2.9-3.8,4.5
						l-6.3-2.3c1.1-2.6,2.6-4.7,4.5-6.2s4-2.5,6.2-3.1c2.3-0.6,4.5-0.9,6.7-0.9c1.4,0,3,0.2,4.8,0.5s3.6,1,5.3,2
						c1.7,1,3.1,2.6,4.3,4.6s1.7,4.8,1.7,8.3v28.6h-6.7v-5.9h-0.3c-0.5,0.9-1.2,2-2.3,3c-1.1,1.1-2.5,2-4.2,2.7
						S-8311,4089.6-8313.5,4089.6z M-8312.5,4083.6c2.6,0,4.9-0.5,6.7-1.6c1.8-1,3.2-2.4,4.1-4s1.4-3.4,1.4-5.2v-6.1
						c-0.3,0.3-0.9,0.6-1.9,0.9c-1,0.3-2,0.5-3.3,0.7s-2.4,0.4-3.6,0.5c-1.2,0.1-2.1,0.3-2.8,0.4c-1.7,0.2-3.4,0.6-4.9,1.1
						c-1.5,0.5-2.7,1.2-3.6,2.2c-0.9,1-1.4,2.3-1.4,4c0,2.3,0.9,4.1,2.6,5.2C-8317.3,4083-8315.1,4083.6-8312.5,4083.6z"/>
					<path class="st4" d="M-8250.6,4054.9l-6,1.7c-0.4-1-0.9-2-1.7-2.9c-0.7-1-1.7-1.7-3-2.4c-1.2-0.6-2.8-0.9-4.8-0.9
						c-2.7,0-4.9,0.6-6.6,1.8c-1.8,1.2-2.6,2.8-2.6,4.6c0,1.7,0.6,3,1.8,3.9s3.1,1.8,5.7,2.4l6.5,1.6c3.9,0.9,6.8,2.4,8.7,4.3
						c1.9,1.9,2.9,4.4,2.9,7.5c0,2.5-0.7,4.7-2.1,6.7c-1.4,2-3.4,3.5-6,4.6c-2.5,1.1-5.5,1.7-8.9,1.7c-4.4,0-8.1-1-11-2.9
						c-2.9-1.9-4.7-4.7-5.5-8.4l6.3-1.6c0.6,2.3,1.7,4.1,3.4,5.3c1.7,1.2,3.9,1.8,6.6,1.8c3.1,0,5.6-0.7,7.4-2
						c1.8-1.3,2.8-2.9,2.8-4.8c0-1.5-0.5-2.8-1.6-3.8c-1.1-1-2.7-1.8-4.9-2.3l-7.2-1.7c-4-0.9-6.9-2.4-8.8-4.4
						c-1.9-2-2.8-4.5-2.8-7.5c0-2.5,0.7-4.6,2.1-6.5c1.4-1.9,3.3-3.4,5.7-4.4c2.4-1.1,5.1-1.6,8.2-1.6c4.3,0,7.7,0.9,10.1,2.8
						S-8251.6,4051.8-8250.6,4054.9z"/>
					<path class="st4" d="M-8220.8,4045.1v5.7h-22.5v-5.7H-8220.8z M-8236.8,4034.7h6.7v41.4c0,1.9,0.3,3.3,0.8,4.2
						c0.6,0.9,1.3,1.6,2.1,1.9s1.8,0.5,2.8,0.5c0.7,0,1.3,0,1.8-0.1c0.5-0.1,0.8-0.2,1.1-0.2l1.4,6c-0.5,0.2-1.1,0.3-1.9,0.5
						c-0.8,0.2-1.8,0.3-3.1,0.3c-1.9,0-3.7-0.4-5.5-1.2s-3.3-2-4.5-3.7c-1.2-1.7-1.8-3.8-1.8-6.3V4034.7z"/>
					<path class="st4" d="M-8210.7,4088.6v-43.5h6.4v6.6h0.5c0.8-2.2,2.2-3.9,4.3-5.2c2.1-1.3,4.4-2,7-2c0.5,0,1.1,0,1.8,0
						c0.7,0,1.3,0,1.7,0.1v6.8c-0.2-0.1-0.7-0.1-1.5-0.3c-0.8-0.1-1.6-0.2-2.5-0.2c-2.1,0-4,0.4-5.6,1.3s-3,2.1-3.9,3.6
						c-1,1.5-1.4,3.3-1.4,5.2v27.5H-8210.7z"/>
					<path class="st4" d="M-8168.3,4089.6c-2.8,0-5.3-0.5-7.5-1.6c-2.2-1-4-2.6-5.3-4.6c-1.3-2-2-4.4-2-7.2c0-2.5,0.5-4.5,1.5-6.1
						c1-1.6,2.3-2.8,3.9-3.7s3.5-1.6,5.4-2c2-0.4,4-0.8,6-1.1c2.6-0.3,4.8-0.6,6.4-0.8c1.7-0.2,2.9-0.5,3.6-0.9
						c0.8-0.4,1.1-1.2,1.1-2.3v-0.2c0-2.8-0.8-5-2.3-6.5c-1.5-1.5-3.8-2.3-6.9-2.3c-3.2,0-5.7,0.7-7.5,2.1s-3.1,2.9-3.8,4.5
						l-6.3-2.3c1.1-2.6,2.6-4.7,4.5-6.2c1.9-1.5,4-2.5,6.2-3.1c2.3-0.6,4.5-0.9,6.7-0.9c1.4,0,3,0.2,4.8,0.5c1.8,0.3,3.6,1,5.3,2
						c1.7,1,3.1,2.6,4.3,4.6c1.1,2.1,1.7,4.8,1.7,8.3v28.6h-6.7v-5.9h-0.3c-0.5,0.9-1.2,2-2.3,3c-1.1,1.1-2.5,2-4.2,2.7
						S-8165.8,4089.6-8168.3,4089.6z M-8167.3,4083.6c2.6,0,4.9-0.5,6.7-1.6s3.2-2.4,4.1-4s1.4-3.4,1.4-5.2v-6.1
						c-0.3,0.3-0.9,0.6-1.9,0.9c-1,0.3-2,0.5-3.3,0.7s-2.4,0.4-3.6,0.5c-1.2,0.1-2.1,0.3-2.8,0.4c-1.7,0.2-3.4,0.6-4.9,1.1
						c-1.5,0.5-2.7,1.2-3.6,2.2c-0.9,1-1.4,2.3-1.4,4c0,2.3,0.9,4.1,2.6,5.2C-8172.1,4083-8170,4083.6-8167.3,4083.6z"/>
					<path class="st4" d="M-8112.9,4088.6v-57.9h19.6c4.5,0,8.2,0.8,11.1,2.3s5.1,3.6,6.4,6.3c1.4,2.7,2.1,5.7,2.1,9.1
						s-0.7,6.4-2.1,9.1c-1.4,2.6-3.5,4.7-6.4,6.2c-2.9,1.5-6.6,2.2-11.1,2.2h-15.8v-6.3h15.6c3.1,0,5.6-0.5,7.5-1.4
						c1.9-0.9,3.3-2.2,4.1-3.9c0.9-1.7,1.3-3.7,1.3-6c0-2.3-0.4-4.3-1.3-6.1c-0.9-1.7-2.3-3.1-4.2-4s-4.4-1.4-7.6-1.4h-12.3v51.7
						H-8112.9z M-8085.6,4062.5l14.3,26h-8.1l-14-26H-8085.6z"/>
					<path class="st4" d="M-8045.2,4089.5c-3.9,0-7.4-0.9-10.3-2.8c-3-1.9-5.3-4.5-6.9-7.8c-1.7-3.4-2.5-7.3-2.5-11.8
						c0-4.5,0.8-8.5,2.5-11.9c1.6-3.4,4-6,6.9-7.9c3-1.9,6.4-2.8,10.3-2.8c3.9,0,7.4,0.9,10.3,2.8c3,1.9,5.3,4.5,6.9,7.9
						c1.6,3.4,2.5,7.3,2.5,11.9c0,4.5-0.8,8.4-2.5,11.8c-1.7,3.4-4,6-6.9,7.8C-8037.8,4088.5-8041.3,4089.5-8045.2,4089.5z
						 M-8045.2,4083.5c3,0,5.4-0.8,7.4-2.3c1.9-1.5,3.3-3.5,4.3-6c0.9-2.5,1.4-5.2,1.4-8.1s-0.5-5.6-1.4-8.1
						c-0.9-2.5-2.3-4.5-4.3-6.1c-1.9-1.5-4.4-2.3-7.4-2.3c-3,0-5.4,0.8-7.4,2.3c-1.9,1.5-3.3,3.6-4.3,6.1c-0.9,2.5-1.4,5.2-1.4,8.1
						s0.5,5.6,1.4,8.1c0.9,2.5,2.3,4.5,4.3,6C-8050.6,4082.7-8048.2,4083.5-8045.2,4083.5z"/>
					<path class="st4" d="M-7998.9,4089.5c-3.6,0-6.8-0.9-9.6-2.8s-4.9-4.4-6.5-7.8c-1.6-3.4-2.3-7.4-2.3-12c0-4.6,0.8-8.5,2.3-11.9
						c1.6-3.4,3.7-6,6.5-7.8c2.8-1.8,6-2.7,9.7-2.7c2.8,0,5.1,0.5,6.7,1.4c1.6,0.9,2.9,2,3.8,3.2c0.9,1.2,1.6,2.1,2.1,2.9h0.6v-21.4
						h6.7v57.9h-6.5v-6.7h-0.8c-0.5,0.8-1.2,1.8-2.1,3s-2.2,2.3-3.9,3.2C-7993.9,4089-7996.1,4089.5-7998.9,4089.5z M-7998,4083.5
						c2.7,0,4.9-0.7,6.8-2.1c1.8-1.4,3.3-3.4,4.2-5.9s1.4-5.4,1.4-8.7c0-3.2-0.5-6.1-1.4-8.5c-0.9-2.4-2.3-4.3-4.2-5.7
						c-1.8-1.4-4.1-2.1-6.8-2.1c-2.8,0-5.2,0.7-7.1,2.2c-1.9,1.4-3.3,3.4-4.2,5.9s-1.4,5.2-1.4,8.3c0,3.1,0.5,5.9,1.4,8.4
						c1,2.5,2.4,4.5,4.2,6C-8003.1,4082.7-8000.8,4083.5-7998,4083.5z"/>
					<path class="st4" d="M-7965.9,4088.6v-43.5h6.4v6.6h0.5c0.8-2.2,2.2-3.9,4.3-5.2c2.1-1.3,4.4-2,7-2c0.5,0,1.1,0,1.8,0
						c0.7,0,1.3,0,1.7,0.1v6.8c-0.2-0.1-0.7-0.1-1.5-0.3c-0.8-0.1-1.6-0.2-2.5-0.2c-2.1,0-4,0.4-5.6,1.3c-1.7,0.9-3,2.1-3.9,3.6
						c-1,1.5-1.4,3.3-1.4,5.2v27.5H-7965.9z"/>
					<path class="st4" d="M-7936.2,4088.6v-43.5h6.7v43.5H-7936.2z M-7935.9,4039.2l6.9-13.1h7.8l-8.8,13.1H-7935.9z"/>
					<path class="st4" d="M-7899.8,4105.8c-3.2,0-6-0.4-8.3-1.2c-2.3-0.8-4.2-1.9-5.8-3.2c-1.5-1.3-2.8-2.7-3.7-4.3l5.3-3.7
						c0.6,0.8,1.4,1.7,2.3,2.7c0.9,1,2.2,1.9,3.8,2.7s3.7,1.1,6.4,1.1c3.5,0,6.4-0.8,8.7-2.5c2.3-1.7,3.4-4.4,3.4-8v-8.8h-0.6
						c-0.5,0.8-1.2,1.8-2.1,2.9c-0.9,1.2-2.2,2.2-3.8,3.1s-3.9,1.3-6.7,1.3c-3.5,0-6.7-0.8-9.4-2.5c-2.8-1.7-5-4.1-6.6-7.2
						s-2.4-7-2.4-11.5c0-4.5,0.8-8.3,2.3-11.6c1.6-3.3,3.7-5.9,6.5-7.7c2.8-1.8,6-2.7,9.7-2.7c2.8,0,5.1,0.5,6.7,1.4s3,2,3.8,3.2
						c0.9,1.2,1.6,2.1,2.1,2.9h0.7v-6.9h6.5v44.7c0,3.7-0.8,6.8-2.5,9.1c-1.7,2.3-4,4.1-6.8,5.2
						C-7893.2,4105.2-7896.3,4105.8-7899.8,4105.8z M-7900,4081.9c2.7,0,4.9-0.6,6.8-1.8c1.8-1.2,3.3-3,4.2-5.3s1.4-5.1,1.4-8.3
						c0-3.1-0.5-5.9-1.4-8.3c-0.9-2.4-2.3-4.3-4.2-5.6c-1.8-1.4-4.1-2-6.8-2c-2.8,0-5.2,0.7-7.1,2.2c-1.9,1.4-3.3,3.4-4.2,5.8
						s-1.4,5.1-1.4,8c0,3,0.5,5.7,1.4,8c1,2.3,2.4,4.1,4.2,5.4C-7905.2,4081.2-7902.8,4081.9-7900,4081.9z"/>
					<path class="st4" d="M-7841.4,4070.8v-25.7h6.7v43.5h-6.7v-7.4h-0.5c-1,2.2-2.6,4.1-4.8,5.6s-4.9,2.3-8.1,2.3
						c-2.7,0-5.1-0.6-7.2-1.8c-2.1-1.2-3.8-3-5-5.4c-1.2-2.4-1.8-5.5-1.8-9.2v-27.6h6.7v27.2c0,3.2,0.9,5.7,2.7,7.6s4.1,2.8,6.8,2.8
						c1.7,0,3.4-0.4,5.1-1.3s3.2-2.1,4.4-3.9S-7841.4,4073.5-7841.4,4070.8z"/>
					<path class="st4" d="M-7804.3,4089.5c-4.2,0-7.8-0.9-10.8-2.8s-5.4-4.5-7-7.8c-1.6-3.3-2.4-7.2-2.4-11.7s0.8-8.4,2.4-11.8
						c1.6-3.4,3.9-6.1,6.8-8c2.9-1.9,6.4-2.9,10.3-2.9c2.3,0,4.5,0.4,6.7,1.1c2.2,0.8,4.2,2,6,3.7c1.8,1.7,3.3,3.9,4.3,6.7
						c1.1,2.8,1.6,6.2,1.6,10.2v2.8h-33.5v-5.8h26.7c0-2.5-0.5-4.6-1.5-6.6c-1-1.9-2.3-3.4-4.1-4.6c-1.8-1.1-3.9-1.7-6.3-1.7
						c-2.7,0-5,0.7-6.9,2c-1.9,1.3-3.4,3-4.5,5.1c-1,2.1-1.6,4.3-1.6,6.7v3.8c0,3.3,0.6,6.1,1.7,8.3c1.1,2.3,2.7,4,4.8,5.2
						c2,1.2,4.4,1.8,7.1,1.8c1.8,0,3.3-0.2,4.8-0.8c1.4-0.5,2.7-1.3,3.7-2.3c1-1,1.8-2.3,2.4-3.8l6.4,1.8c-0.7,2.2-1.8,4.1-3.4,5.8
						s-3.6,2.9-5.9,3.8S-7801.4,4089.5-7804.3,4089.5z"/>
					<path class="st4" d="M-7777.4,4088.6v-5.1l24.7-31.7v-0.5h-23.9v-6.2h32.5v5.3l-24,31.5v0.5h24.8v6.2H-7777.4z"/>
				</g>
			</g>
		</g>
	</g>
</g>
<path class="st0" d="M59.1,64L59,53.4C58.9,37.9,52.4,23.2,40.8,13c-3.4-3-7.1-5.5-10.9-7c-0.1-0.1-0.3,0-0.3,0.2v10.7
	c0,0-13.4,0.2-19.1,16c-0.3,0.8-0.7,1.4-1.4,1.9c-0.8,0.7-2.2,1.6-4.1,2.5C4.9,37.2,2.1,49.8,20.1,50c1.9,0,3.8,0.5,5.5,1.3
	c2.9,1.5,6.6,4.3,7.3,9.2c0.1,1.2,0.1,2.3-0.1,3.4C32.3,65.8,59.1,64,59.1,64z M22.5,35.1c-2,0.1-3.5-1.5-3.5-3.5
	c0.1-1.8,1.5-3.2,3.3-3.3c2-0.1,3.5,1.5,3.5,3.5C25.7,33.6,24.3,35.1,22.5,35.1z"/>
</svg>
